<svg class="main-svg" xmlns="http://www.w3.org/2000/svg" xmlns:xlink="http://www.w3.org/1999/xlink" width="900" height="500" style="" viewBox="0 0 900 500"><rect x="0" y="0" width="900" height="500" style="fill: rgb(17, 17, 17); fill-opacity: 1;"/><defs id="defs-958450"><g class="clips"><clipPath id="clip958450xyplot" class="plotclip"><rect width="740" height="320"/></clipPath><clipPath class="axesclip" id="clip958450x"><rect x="80" y="0" width="740" height="500"/></clipPath><clipPath class="axesclip" id="clip958450y"><rect x="0" y="100" width="900" height="320"/></clipPath><clipPath class="axesclip" id="clip958450xy"><rect x="80" y="100" width="740" height="320"/></clipPath></g><g class="gradients"/><g class="patterns"/></defs><g class="bglayer"/><g class="layer-below"><g class="imagelayer"/><g class="shapelayer"/></g><g class="cartesianlayer"><g class="subplot xy"><g class="layer-subplot"><g class="shapelayer"/><g class="imagelayer"/></g><g class="gridlayer"><g class="x"><path class="xgrid crisp" transform="translate(154.66,0)" d="M0,100v320" style="stroke: rgb(40, 52, 66); stroke-opacity: 1; stroke-width: 1px;"/><path class="xgrid crisp" transform="translate(302.33000000000004,0)" d="M0,100v320" style="stroke: rgb(40, 52, 66); stroke-opacity: 1; stroke-width: 1px;"/><path class="xgrid crisp" transform="translate(597.67,0)" d="M0,100v320" style="stroke: rgb(40, 52, 66); stroke-opacity: 1; stroke-width: 1px;"/><path class="xgrid crisp" transform="translate(745.34,0)" d="M0,100v320" style="stroke: rgb(40, 52, 66); stroke-opacity: 1; stroke-width: 1px;"/></g><g class="y"><path class="ygrid crisp" transform="translate(0,407.67)" d="M80,0h740" style="stroke: rgb(40, 52, 66); stroke-opacity: 1; stroke-width: 1px;"/><path class="ygrid crisp" transform="translate(0,370.75)" d="M80,0h740" style="stroke: rgb(40, 52, 66); stroke-opacity: 1; stroke-width: 1px;"/><path class="ygrid crisp" transform="translate(0,333.83000000000004)" d="M80,0h740" style="stroke: rgb(40, 52, 66); stroke-opacity: 1; stroke-width: 1px;"/><path class="ygrid crisp" transform="translate(0,296.91999999999996)" d="M80,0h740" style="stroke: rgb(40, 52, 66); stroke-opacity: 1; stroke-width: 1px;"/><path class="ygrid crisp" transform="translate(0,223.07999999999998)" d="M80,0h740" style="stroke: rgb(40, 52, 66); stroke-opacity: 1; stroke-width: 1px;"/><path class="ygrid crisp" transform="translate(0,186.17000000000002)" d="M80,0h740" style="stroke: rgb(40, 52, 66); stroke-opacity: 1; stroke-width: 1px;"/><path class="ygrid crisp" transform="translate(0,149.25)" d="M80,0h740" style="stroke: rgb(40, 52, 66); stroke-opacity: 1; stroke-width: 1px;"/><path class="ygrid crisp" transform="translate(0,112.33)" d="M80,0h740" style="stroke: rgb(40, 52, 66); stroke-opacity: 1; stroke-width: 1px;"/></g></g><g class="zerolinelayer"><path class="xzl zl crisp" transform="translate(450,0)" d="M0,100v320" style="stroke: rgb(40, 52, 66); stroke-opacity: 1; stroke-width: 2px;"/><path class="yzl zl crisp" transform="translate(0,260)" d="M80,0h740" style="stroke: rgb(40, 52, 66); stroke-opacity: 1; stroke-width: 2px;"/></g><path class="xlines-below"/><path class="ylines-below"/><g class="overlines-below"/><g class="xaxislayer-below"/><g class="yaxislayer-below"/><g class="overaxes-below"/><g class="plot" transform="translate(80,100)" clip-path="url(#clip958450xyplot)"><g class="scatterlayer mlayer"><g class="trace scatter trace45dc10a9-50bf-4c32-b513-af23c8bc3339" style="stroke-miterlimit: 2; opacity: 1;"><g class="fills"/><g class="errorbars"/><g class="lines"><path class="js-line" d="M369.11,240.44C368.82,240.4 368.52,240.34 368.24,240.26C367.95,240.18 367.67,240.07 367.4,239.95C367.13,239.83 366.87,239.7 366.62,239.54C366.37,239.39 366.13,239.21 365.91,239.02C365.69,238.83 365.48,238.63 365.28,238.42C365.09,238.21 364.9,237.98 364.74,237.74C364.58,237.5 364.43,237.25 364.3,237C364.17,236.75 364.05,236.49 363.96,236.22C363.87,235.96 363.8,235.68 363.74,235.41C363.68,235.14 363.64,234.86 363.62,234.59C363.6,234.31 363.6,234.03 363.62,233.76C363.64,233.49 363.66,233.22 363.71,232.95C363.76,232.69 363.83,232.42 363.91,232.17C363.99,231.92 364.09,231.67 364.2,231.43C364.31,231.19 364.43,230.96 364.57,230.74C364.71,230.52 364.86,230.3 365.02,230.1C365.18,229.9 365.36,229.71 365.54,229.53C365.73,229.35 365.93,229.18 366.13,229.02C366.33,228.87 366.54,228.73 366.76,228.6C366.98,228.47 367.21,228.35 367.44,228.25C367.67,228.15 367.9,228.06 368.14,227.99C368.38,227.92 368.63,227.86 368.88,227.82C369.13,227.78 369.37,227.75 369.62,227.73C369.87,227.71 370.13,227.71 370.38,227.73C370.63,227.75 370.87,227.78 371.12,227.82C371.37,227.86 371.62,227.92 371.86,227.99C372.1,228.06 372.33,228.15 372.56,228.25C372.79,228.35 373.02,228.47 373.24,228.6C373.46,228.73 373.67,228.87 373.87,229.02C374.07,229.18 374.27,229.35 374.46,229.53C374.64,229.71 374.82,229.9 374.98,230.1C375.14,230.3 375.29,230.52 375.43,230.74C375.57,230.96 375.69,231.19 375.8,231.43C375.91,231.67 376.01,231.92 376.09,232.17C376.17,232.42 376.24,232.69 376.29,232.95C376.34,233.22 376.36,233.49 376.38,233.76C376.4,234.03 376.4,234.31 376.38,234.59C376.36,234.86 376.32,235.14 376.26,235.41C376.2,235.68 376.13,235.96 376.04,236.22C375.95,236.49 375.83,236.75 375.7,237C375.57,237.25 375.42,237.5 375.26,237.74C375.1,237.98 374.91,238.21 374.72,238.42C374.52,238.63 374.31,238.83 374.09,239.02C373.87,239.21 373.63,239.39 373.38,239.54C373.13,239.7 372.87,239.83 372.6,239.95C372.33,240.07 372.05,240.18 371.76,240.26C371.48,240.34 371.18,240.4 370.89,240.44C370.6,240.48 370.3,240.5 370,240.5C369.7,240.5 369.4,240.48 369.11,240.44Z" style="vector-effect: non-scaling-stroke; fill: none; stroke: rgb(0, 0, 255); stroke-opacity: 1; stroke-width: 2px; opacity: 1;"/></g><g class="points"/><g class="text"/></g><g class="trace scatter trace0f286f93-f793-4f95-a2b2-791e2498f086" style="stroke-miterlimit: 2; opacity: 1;"><g class="fills"/><g class="errorbars"/><g class="lines"><path class="js-line" d="M368.53,244.45C368.05,244.38 367.57,244.27 367.1,244.13C366.63,243.99 366.17,243.81 365.73,243.6C365.29,243.39 364.87,243.15 364.47,242.89C364.07,242.63 363.69,242.34 363.33,242.02C362.98,241.71 362.64,241.36 362.34,241C362.04,240.64 361.76,240.26 361.51,239.87C361.26,239.48 361.04,239.08 360.85,238.66C360.66,238.25 360.51,237.81 360.38,237.38C360.25,236.95 360.15,236.52 360.08,236.08C360.01,235.65 359.97,235.21 359.96,234.77C359.95,234.34 359.97,233.91 360.01,233.48C360.05,233.06 360.12,232.64 360.22,232.23C360.31,231.82 360.44,231.42 360.58,231.03C360.72,230.65 360.89,230.27 361.08,229.91C361.27,229.55 361.48,229.2 361.7,228.87C361.92,228.54 362.16,228.22 362.42,227.92C362.68,227.62 362.96,227.34 363.25,227.08C363.54,226.82 363.84,226.57 364.15,226.35C364.46,226.13 364.79,225.93 365.12,225.74C365.45,225.56 365.8,225.39 366.15,225.24C366.5,225.09 366.86,224.97 367.22,224.86C367.58,224.76 367.95,224.67 368.32,224.61C368.69,224.55 369.07,224.51 369.44,224.49C369.81,224.47 370.19,224.47 370.56,224.49C370.93,224.51 371.31,224.55 371.68,224.61C372.05,224.67 372.42,224.76 372.78,224.86C373.14,224.97 373.5,225.09 373.85,225.24C374.2,225.39 374.55,225.56 374.88,225.74C375.21,225.93 375.54,226.13 375.85,226.35C376.16,226.57 376.46,226.82 376.75,227.08C377.04,227.34 377.32,227.62 377.58,227.92C377.84,228.22 378.08,228.54 378.3,228.87C378.52,229.2 378.73,229.55 378.92,229.91C379.11,230.27 379.28,230.65 379.42,231.03C379.56,231.42 379.69,231.82 379.78,232.23C379.88,232.64 379.95,233.06 379.99,233.48C380.03,233.91 380.05,234.34 380.04,234.77C380.03,235.21 379.99,235.65 379.92,236.08C379.85,236.52 379.75,236.95 379.62,237.38C379.49,237.81 379.34,238.25 379.15,238.66C378.96,239.08 378.74,239.48 378.49,239.87C378.24,240.26 377.96,240.64 377.66,241C377.36,241.36 377.02,241.71 376.67,242.02C376.31,242.34 375.93,242.63 375.53,242.89C375.13,243.15 374.71,243.39 374.27,243.6C373.83,243.81 373.37,243.99 372.9,244.13C372.43,244.27 371.95,244.38 371.47,244.45C370.99,244.52 370.49,244.56 370,244.56C369.51,244.56 369.01,244.52 368.53,244.45Z" style="vector-effect: non-scaling-stroke; fill: none; stroke: rgb(128, 128, 128); stroke-opacity: 1; stroke-width: 2px; opacity: 1;"/></g><g class="points"/><g class="text"/></g><g class="trace scatter trace7ecb6164-cb99-4dfb-89b7-964fcedeb297" style="stroke-miterlimit: 2; opacity: 1;"><g class="fills"/><g class="errorbars"/><g class="lines"><path class="js-line" d="M367.5,251.15C366.68,251.02 365.86,250.82 365.07,250.56C364.29,250.3 363.52,249.98 362.79,249.61C362.06,249.24 361.36,248.8 360.7,248.33C360.05,247.86 359.44,247.34 358.87,246.78C358.31,246.23 357.79,245.62 357.32,245C356.86,244.38 356.44,243.72 356.07,243.05C355.71,242.39 355.4,241.7 355.14,241C354.89,240.31 354.69,239.6 354.53,238.89C354.38,238.19 354.27,237.48 354.21,236.77C354.15,236.08 354.15,235.38 354.19,234.69C354.23,234.01 354.3,233.34 354.42,232.68C354.54,232.03 354.7,231.39 354.89,230.77C355.08,230.15 355.32,229.55 355.58,228.97C355.84,228.4 356.13,227.85 356.45,227.32C356.77,226.8 357.12,226.29 357.49,225.81C357.86,225.34 358.25,224.88 358.66,224.46C359.07,224.04 359.5,223.64 359.95,223.27C360.4,222.9 360.87,222.56 361.35,222.25C361.83,221.94 362.32,221.66 362.82,221.4C363.32,221.15 363.83,220.92 364.35,220.72C364.87,220.52 365.4,220.35 365.93,220.21C366.46,220.07 367.01,219.96 367.55,219.87C368.09,219.79 368.64,219.73 369.18,219.7C369.73,219.67 370.27,219.67 370.82,219.7C371.36,219.73 371.91,219.79 372.45,219.87C372.99,219.96 373.54,220.07 374.07,220.21C374.6,220.35 375.13,220.52 375.65,220.72C376.17,220.92 376.68,221.15 377.18,221.4C377.68,221.66 378.17,221.94 378.65,222.25C379.13,222.56 379.6,222.9 380.05,223.27C380.5,223.64 380.93,224.04 381.34,224.46C381.75,224.88 382.14,225.34 382.51,225.81C382.88,226.29 383.23,226.8 383.55,227.32C383.87,227.85 384.16,228.4 384.42,228.97C384.68,229.55 384.92,230.15 385.11,230.77C385.3,231.39 385.46,232.03 385.58,232.68C385.7,233.34 385.77,234.01 385.81,234.69C385.85,235.38 385.85,236.08 385.79,236.77C385.73,237.48 385.62,238.19 385.47,238.89C385.31,239.6 385.11,240.31 384.86,241C384.6,241.7 384.29,242.39 383.93,243.05C383.56,243.72 383.14,244.38 382.68,245C382.21,245.62 381.69,246.23 381.13,246.78C380.56,247.34 379.95,247.86 379.3,248.33C378.64,248.8 377.94,249.24 377.21,249.61C376.48,249.98 375.71,250.3 374.93,250.56C374.14,250.82 373.32,251.02 372.5,251.15C371.68,251.28 370.83,251.35 370,251.35C369.17,251.35 368.32,251.28 367.5,251.15Z" style="vector-effect: non-scaling-stroke; fill: none; stroke: rgb(128, 128, 128); stroke-opacity: 1; stroke-width: 2px; opacity: 1;"/></g><g class="points"/><g class="text"/></g><g class="trace scatter tracec32898fb-1169-4861-8c45-43dc58592753" style="stroke-miterlimit: 2; opacity: 1;"><g class="fills"/><g class="errorbars"/><g class="lines"><path class="js-line" d="M365.51,262.84C364.04,262.58 362.58,262.18 361.19,261.66C359.81,261.15 358.47,260.5 357.21,259.76C355.97,259.03 354.78,258.19 353.69,257.27C352.62,256.37 351.62,255.35 350.73,254.3C349.85,253.26 349.06,252.14 348.37,251C347.7,249.88 347.11,248.7 346.63,247.51C346.15,246.34 345.77,245.14 345.48,243.94C345.19,242.77 345,241.57 344.89,240.39C344.78,239.24 344.75,238.08 344.8,236.95C344.85,235.84 344.97,234.74 345.16,233.67C345.34,232.62 345.59,231.59 345.89,230.6C346.19,229.63 346.56,228.68 346.96,227.77C347.36,226.88 347.8,226.01 348.29,225.18C348.77,224.37 349.29,223.59 349.85,222.85C350.4,222.12 350.98,221.43 351.59,220.78C352.19,220.14 352.82,219.53 353.48,218.96C354.13,218.4 354.8,217.88 355.49,217.4C356.17,216.92 356.87,216.47 357.58,216.07C358.29,215.67 359.01,215.31 359.75,214.98C360.48,214.65 361.23,214.36 361.98,214.11C362.72,213.86 363.48,213.65 364.24,213.47C365,213.29 365.77,213.15 366.54,213.04C367.3,212.93 368.07,212.87 368.84,212.83C369.61,212.79 370.39,212.79 371.16,212.83C371.93,212.87 372.7,212.93 373.46,213.04C374.23,213.15 375,213.29 375.76,213.47C376.52,213.65 377.28,213.86 378.02,214.11C378.77,214.36 379.52,214.65 380.25,214.98C380.99,215.31 381.71,215.67 382.42,216.07C383.13,216.47 383.83,216.92 384.51,217.4C385.2,217.88 385.87,218.4 386.52,218.96C387.18,219.53 387.81,220.14 388.41,220.78C389.02,221.43 389.6,222.12 390.15,222.85C390.71,223.59 391.23,224.37 391.71,225.18C392.2,226.01 392.64,226.88 393.04,227.77C393.44,228.68 393.81,229.63 394.11,230.6C394.41,231.59 394.66,232.62 394.84,233.67C395.03,234.74 395.15,235.84 395.2,236.95C395.25,238.08 395.22,239.24 395.11,240.39C395,241.57 394.81,242.77 394.52,243.94C394.23,245.14 393.85,246.34 393.37,247.51C392.89,248.7 392.3,249.88 391.63,251C390.94,252.14 390.15,253.26 389.27,254.3C388.38,255.35 387.38,256.37 386.31,257.27C385.22,258.19 384.03,259.03 382.79,259.76C381.53,260.5 380.19,261.15 378.81,261.66C377.42,262.18 375.96,262.58 374.49,262.84C373.02,263.11 371.5,263.25 370,263.25C368.5,263.25 366.98,263.11 365.51,262.84Z" style="vector-effect: non-scaling-stroke; fill: none; stroke: rgb(128, 128, 128); stroke-opacity: 1; stroke-width: 2px; opacity: 1;"/></g><g class="points"/><g class="text"/></g><g class="trace scatter tracee8dc21c4-2b4f-4dbb-a745-9734d401f4a0" style="stroke-miterlimit: 2; opacity: 1;"><g class="fills"/><g class="errorbars"/><g class="lines"><path class="js-line" d="M361.09,284.79C358.22,284.16 355.37,283.18 352.73,281.97C350.13,280.77 347.63,279.26 345.37,277.59C343.16,275.95 341.11,274.06 339.31,272.06C337.56,270.11 336,267.97 334.68,265.79C333.4,263.68 332.34,261.43 331.48,259.2C330.65,257.04 330.03,254.8 329.59,252.61C329.16,250.49 328.92,248.35 328.83,246.27C328.74,244.26 328.82,242.25 329.01,240.32C329.2,238.45 329.53,236.61 329.95,234.85C330.36,233.15 330.88,231.49 331.48,229.91C332.06,228.38 332.73,226.91 333.46,225.5C334.17,224.14 334.95,222.83 335.78,221.59C336.58,220.39 337.45,219.24 338.35,218.16C339.23,217.11 340.15,216.12 341.1,215.18C342.03,214.27 342.99,213.41 343.97,212.61C344.93,211.83 345.92,211.09 346.92,210.41C347.91,209.74 348.92,209.13 349.94,208.56C350.94,208 351.96,207.49 352.99,207.02C354,206.56 355.03,206.15 356.06,205.78C357.08,205.41 358.11,205.08 359.15,204.8C360.18,204.52 361.21,204.28 362.25,204.08C363.28,203.88 364.31,203.73 365.35,203.61C366.38,203.49 367.42,203.42 368.45,203.38C369.48,203.34 370.52,203.34 371.55,203.38C372.58,203.42 373.62,203.49 374.65,203.61C375.69,203.73 376.72,203.88 377.75,204.08C378.79,204.28 379.82,204.52 380.85,204.8C381.89,205.08 382.92,205.41 383.94,205.78C384.97,206.15 386,206.56 387.01,207.02C388.04,207.49 389.06,208 390.06,208.56C391.08,209.13 392.09,209.74 393.08,210.41C394.08,211.09 395.07,211.83 396.03,212.61C397.01,213.41 397.97,214.27 398.9,215.18C399.85,216.12 400.77,217.11 401.65,218.16C402.55,219.24 403.42,220.39 404.22,221.59C405.05,222.83 405.83,224.14 406.54,225.5C407.27,226.91 407.94,228.38 408.52,229.91C409.12,231.49 409.64,233.15 410.05,234.85C410.47,236.61 410.8,238.45 410.99,240.32C411.18,242.25 411.26,244.26 411.17,246.27C411.08,248.35 410.84,250.49 410.41,252.61C409.97,254.8 409.35,257.04 408.52,259.2C407.66,261.43 406.6,263.68 405.32,265.79C404,267.97 402.44,270.11 400.69,272.06C398.89,274.06 396.84,275.95 394.63,277.59C392.37,279.26 389.87,280.77 387.27,281.97C384.63,283.18 381.78,284.16 378.91,284.79C376.02,285.43 372.97,285.77 370,285.77C367.03,285.77 363.98,285.43 361.09,284.79Z" style="vector-effect: non-scaling-stroke; fill: none; stroke: rgb(128, 128, 128); stroke-opacity: 1; stroke-width: 2px; opacity: 1;"/></g><g class="points"/><g class="text"/></g><g class="trace scatter trace0da00402-75d9-44c9-8566-e339bf0bbcde" style="stroke-miterlimit: 2; opacity: 1;"><g class="fills"/><g class="errorbars"/><g class="lines"><path class="js-line" d="M348.48,332.13C341.81,330.07 335.24,326.81 329.58,323.03C324.11,319.37 319.11,314.75 314.99,309.96C311.06,305.39 307.78,300.19 305.22,295.06C302.8,290.2 301.04,285.03 299.82,280.05C298.67,275.36 298.09,270.59 297.89,266.05C297.7,261.78 297.96,257.57 298.48,253.59C298.97,249.85 299.8,246.22 300.79,242.81C301.73,239.59 302.9,236.53 304.19,233.64C305.4,230.91 306.79,228.33 308.24,225.91C309.62,223.61 311.11,221.46 312.65,219.43C314.11,217.5 315.66,215.7 317.23,214.01C318.73,212.39 320.29,210.89 321.86,209.48C323.37,208.13 324.91,206.87 326.46,205.69C327.95,204.56 329.46,203.51 330.98,202.53C332.45,201.58 333.93,200.71 335.42,199.9C336.86,199.11 338.31,198.39 339.76,197.72C341.17,197.07 342.59,196.47 344.01,195.92C345.4,195.38 346.78,194.9 348.17,194.46C349.53,194.03 350.89,193.65 352.25,193.3C353.59,192.96 354.92,192.66 356.26,192.4C357.58,192.14 358.9,191.92 360.22,191.74C361.53,191.56 362.84,191.43 364.15,191.32C365.45,191.21 366.75,191.14 368.05,191.1C369.35,191.06 370.65,191.06 371.95,191.1C373.25,191.14 374.55,191.21 375.85,191.32C377.16,191.43 378.47,191.56 379.78,191.74C381.1,191.92 382.42,192.14 383.74,192.4C385.08,192.66 386.41,192.96 387.75,193.3C389.11,193.65 390.47,194.03 391.83,194.46C393.22,194.9 394.6,195.38 395.99,195.92C397.41,196.47 398.83,197.07 400.24,197.72C401.69,198.39 403.14,199.11 404.58,199.9C406.07,200.71 407.55,201.58 409.02,202.53C410.54,203.51 412.05,204.56 413.54,205.69C415.09,206.87 416.63,208.13 418.14,209.48C419.71,210.89 421.27,212.39 422.77,214.01C424.34,215.7 425.89,217.5 427.35,219.43C428.89,221.46 430.38,223.61 431.76,225.91C433.21,228.33 434.6,230.91 435.81,233.64C437.1,236.53 438.27,239.59 439.21,242.81C440.2,246.22 441.03,249.85 441.52,253.59C442.04,257.57 442.3,261.78 442.11,266.05C441.91,270.59 441.33,275.36 440.18,280.05C438.96,285.03 437.2,290.2 434.78,295.06C432.22,300.19 428.94,305.39 425.01,309.96C420.89,314.75 415.89,319.37 410.42,323.03C404.76,326.81 398.19,330.07 391.52,332.13C384.73,334.23 377.17,335.42 370,335.42C362.83,335.42 355.27,334.23 348.48,332.13Z" style="vector-effect: non-scaling-stroke; fill: none; stroke: rgb(128, 128, 128); stroke-opacity: 1; stroke-width: 2px; opacity: 1;"/></g><g class="points"/><g class="text"/></g><g class="trace scatter trace843a7fca-ec48-4a35-8e29-a51e05579840" style="stroke-miterlimit: 2; opacity: 1;"><g class="fills"/><g class="errorbars"/><g class="lines"><path class="js-line" d="M284.65,469.71C262.65,456.3 243.57,433.92 231.39,413.56C220.54,395.42 214.89,373.84 212.12,355.22C209.7,338.93 211,322.56 213.22,308.25C215.16,295.75 219.1,284.15 223.28,273.82C226.96,264.72 231.61,256.57 236.26,249.21C240.4,242.65 244.96,236.84 249.47,231.54C253.53,226.77 257.74,222.54 261.89,218.66C265.66,215.13 269.48,212 273.22,209.11C276.66,206.45 280.1,204.08 283.46,201.89C286.58,199.86 289.66,198.03 292.69,196.34C295.52,194.76 298.31,193.33 301.05,192.01C303.63,190.76 306.18,189.64 308.68,188.59C311.05,187.6 313.38,186.7 315.67,185.86C317.86,185.06 320.01,184.33 322.14,183.66C324.18,183.01 326.19,182.43 328.17,181.89C330.08,181.37 331.97,180.9 333.84,180.46C335.65,180.04 337.43,179.65 339.2,179.3C340.92,178.96 342.63,178.66 344.32,178.38C345.97,178.11 347.61,177.87 349.24,177.66C350.84,177.45 352.43,177.26 354.01,177.1C355.57,176.94 357.12,176.81 358.66,176.7C360.19,176.59 361.71,176.51 363.23,176.44C364.74,176.38 366.24,176.33 367.75,176.31C369.25,176.29 370.75,176.29 372.25,176.31C373.76,176.33 375.26,176.38 376.77,176.44C378.29,176.51 379.81,176.59 381.34,176.7C382.88,176.81 384.43,176.94 385.99,177.1C387.57,177.26 389.16,177.45 390.76,177.66C392.39,177.87 394.03,178.11 395.68,178.38C397.37,178.66 399.08,178.96 400.8,179.3C402.57,179.65 404.35,180.04 406.16,180.46C408.03,180.9 409.92,181.37 411.83,181.89C413.81,182.43 415.82,183.01 417.86,183.66C419.99,184.33 422.14,185.06 424.33,185.86C426.62,186.7 428.95,187.6 431.32,188.59C433.82,189.64 436.37,190.76 438.95,192.01C441.69,193.33 444.48,194.76 447.31,196.34C450.34,198.03 453.42,199.86 456.54,201.89C459.9,204.08 463.34,206.45 466.78,209.11C470.52,212 474.34,215.13 478.11,218.66C482.26,222.54 486.47,226.77 490.53,231.54C495.04,236.84 499.6,242.65 503.74,249.21C508.39,256.57 513.04,264.72 516.72,273.82C520.9,284.15 524.84,295.75 526.78,308.25C529,322.56 530.3,338.93 527.88,355.22C525.11,373.84 519.46,395.42 508.61,413.56C496.43,433.92 477.35,456.3 455.35,469.71C431.78,484.08 398.45,494.53 370,494.53C341.55,494.53 308.22,484.08 284.65,469.71Z" style="vector-effect: non-scaling-stroke; fill: none; stroke: rgb(128, 128, 128); stroke-opacity: 1; stroke-width: 2px; opacity: 1;"/></g><g class="points"/><g class="text"/></g><g class="trace scatter trace5edbd317-a5f4-4899-96ac-44db12d73f70" style="stroke-miterlimit: 2; opacity: 1;"><g class="fills"/><g class="errorbars"/><g class="lines"><path class="js-line" d="M-14800,160Q-14848,160 -14848,160C-14848,160 -2359.97,160 -780.03,160C-459.95,160 -343.78,160 -202.64,160C-120.93,160 -62.69,160 -9.12,160C28.91,160 59.96,160 88.44,160C110.62,160 129.82,160 147.62,160C162.26,160 175.36,160 187.63,160C198.09,160 207.64,160 216.68,160C224.58,160 231.92,160 238.9,160C245.13,160 250.97,160 256.57,160C261.64,160 266.45,160 271.07,160C275.31,160 279.36,160 283.27,160C286.9,160 290.38,160 293.76,160C296.92,160 299.98,160 302.95,160C305.75,160 308.47,160 311.12,160C313.64,160 316.1,160 318.5,160C320.8,160 323.04,160 325.24,160C327.36,160 329.43,160 331.48,160C333.46,160 335.4,160 337.32,160C339.18,160 341.01,160 342.83,160C344.6,160 346.35,160 348.09,160C349.79,160 351.48,160 353.15,160C354.8,160 356.43,160 358.06,160C359.67,160 361.28,160 362.88,160C364.47,160 366.05,160 367.63,160C369.21,160 370.79,160 372.37,160C373.95,160 375.53,160 377.12,160C378.72,160 380.33,160 381.94,160C383.57,160 385.2,160 386.85,160C388.52,160 390.21,160 391.91,160C393.65,160 395.4,160 397.17,160C398.99,160 400.82,160 402.68,160C404.6,160 406.54,160 408.52,160C410.57,160 412.64,160 414.76,160C416.96,160 419.2,160 421.5,160C423.9,160 426.36,160 428.88,160C431.53,160 434.25,160 437.05,160C440.02,160 443.08,160 446.24,160C449.62,160 453.1,160 456.73,160C460.64,160 464.69,160 468.93,160C473.55,160 478.36,160 483.43,160C489.03,160 494.87,160 501.1,160C508.08,160 515.42,160 523.32,160C532.36,160 541.91,160 552.37,160C564.64,160 577.74,160 592.38,160C610.18,160 629.38,160 651.56,160C680.04,160 711.09,160 749.12,160C802.69,160 860.93,160 942.64,160C1083.78,160 1200.04,160 1520.03,160C3096.82,160 15540,160 15540.000000000002,160Q15540,160 15540,160" style="vector-effect: non-scaling-stroke; fill: none; stroke: rgb(128, 128, 128); stroke-opacity: 1; stroke-width: 2px; opacity: 1;"/></g><g class="points"/><g class="text"/></g><g class="trace scatter trace025cdb4d-dba9-46cc-b117-cb992c94faf9" style="stroke-miterlimit: 2; opacity: 1;"><g class="fills"/><g class="errorbars"/><g class="lines"><path class="js-line" d="M284.65,-149.71C262.65,-136.3 243.57,-113.92 231.39,-93.56C220.54,-75.42 214.89,-53.84 212.12,-35.22C209.7,-18.93 211,-2.56 213.22,11.75C215.16,24.25 219.1,35.85 223.28,46.18C226.96,55.28 231.61,63.43 236.26,70.79C240.4,77.35 244.96,83.16 249.47,88.46C253.53,93.23 257.74,97.46 261.89,101.34C265.66,104.87 269.48,108 273.22,110.89C276.66,113.55 280.1,115.92 283.46,118.11C286.58,120.14 289.66,121.97 292.69,123.66C295.52,125.24 298.31,126.67 301.05,127.99C303.63,129.24 306.18,130.36 308.68,131.41C311.05,132.4 313.38,133.3 315.67,134.14C317.86,134.94 320.01,135.67 322.14,136.34C324.18,136.99 326.19,137.57 328.17,138.11C330.08,138.63 331.97,139.1 333.84,139.54C335.65,139.96 337.43,140.35 339.2,140.7C340.92,141.04 342.63,141.34 344.32,141.62C345.97,141.89 347.61,142.13 349.24,142.34C350.84,142.55 352.43,142.74 354.01,142.9C355.57,143.06 357.12,143.19 358.66,143.3C360.19,143.41 361.71,143.49 363.23,143.56C364.74,143.62 366.24,143.67 367.75,143.69C369.25,143.71 370.75,143.71 372.25,143.69C373.76,143.67 375.26,143.62 376.77,143.56C378.29,143.49 379.81,143.41 381.34,143.3C382.88,143.19 384.43,143.06 385.99,142.9C387.57,142.74 389.16,142.55 390.76,142.34C392.39,142.13 394.03,141.89 395.68,141.62C397.37,141.34 399.08,141.04 400.8,140.7C402.57,140.35 404.35,139.96 406.16,139.54C408.03,139.1 409.92,138.63 411.83,138.11C413.81,137.57 415.82,136.99 417.86,136.34C419.99,135.67 422.14,134.94 424.33,134.14C426.62,133.3 428.95,132.4 431.32,131.41C433.82,130.36 436.37,129.24 438.95,127.99C441.69,126.67 444.48,125.24 447.31,123.66C450.34,121.97 453.42,120.14 456.54,118.11C459.9,115.92 463.34,113.55 466.78,110.89C470.52,108 474.34,104.87 478.11,101.34C482.26,97.46 486.47,93.23 490.53,88.46C495.04,83.16 499.6,77.35 503.74,70.79C508.39,63.43 513.04,55.28 516.72,46.18C520.9,35.85 524.84,24.25 526.78,11.75C529,-2.56 530.3,-18.93 527.88,-35.22C525.11,-53.84 519.46,-75.42 508.61,-93.56C496.43,-113.92 477.35,-136.3 455.35,-149.71C431.78,-164.08 398.45,-174.53 370,-174.53C341.55,-174.53 308.22,-164.08 284.65,-149.71Z" style="vector-effect: non-scaling-stroke; fill: none; stroke: rgb(128, 128, 128); stroke-opacity: 1; stroke-width: 2px; opacity: 1;"/></g><g class="points"/><g class="text"/></g><g class="trace scatter traceeed35666-27c5-4f3e-b7b4-7c05ec57b27c" style="stroke-miterlimit: 2; opacity: 1;"><g class="fills"/><g class="errorbars"/><g class="lines"><path class="js-line" d="M348.48,-12.13C341.81,-10.07 335.24,-6.81 329.58,-3.03C324.11,0.63 319.11,5.25 314.99,10.04C311.06,14.61 307.78,19.81 305.22,24.94C302.8,29.8 301.04,34.97 299.82,39.95C298.67,44.64 298.09,49.41 297.89,53.95C297.7,58.22 297.96,62.43 298.48,66.41C298.97,70.15 299.8,73.78 300.79,77.19C301.73,80.41 302.9,83.47 304.19,86.36C305.4,89.09 306.79,91.67 308.24,94.09C309.62,96.39 311.11,98.54 312.65,100.57C314.11,102.5 315.66,104.3 317.23,105.99C318.73,107.61 320.29,109.11 321.86,110.52C323.37,111.87 324.91,113.13 326.46,114.31C327.95,115.44 329.46,116.49 330.98,117.47C332.45,118.42 333.93,119.29 335.42,120.1C336.86,120.89 338.31,121.61 339.76,122.28C341.17,122.93 342.59,123.53 344.01,124.08C345.4,124.62 346.78,125.1 348.17,125.54C349.53,125.97 350.89,126.35 352.25,126.7C353.59,127.04 354.92,127.34 356.26,127.6C357.58,127.86 358.9,128.08 360.22,128.26C361.53,128.44 362.84,128.57 364.15,128.68C365.45,128.79 366.75,128.86 368.05,128.9C369.35,128.94 370.65,128.94 371.95,128.9C373.25,128.86 374.55,128.79 375.85,128.68C377.16,128.57 378.47,128.44 379.78,128.26C381.1,128.08 382.42,127.86 383.74,127.6C385.08,127.34 386.41,127.04 387.75,126.7C389.11,126.35 390.47,125.97 391.83,125.54C393.22,125.1 394.6,124.62 395.99,124.08C397.41,123.53 398.83,122.93 400.24,122.28C401.69,121.61 403.14,120.89 404.58,120.1C406.07,119.29 407.55,118.42 409.02,117.47C410.54,116.49 412.05,115.44 413.54,114.31C415.09,113.13 416.63,111.87 418.14,110.52C419.71,109.11 421.27,107.61 422.77,105.99C424.34,104.3 425.89,102.5 427.35,100.57C428.89,98.54 430.38,96.39 431.76,94.09C433.21,91.67 434.6,89.09 435.81,86.36C437.1,83.47 438.27,80.41 439.21,77.19C440.2,73.78 441.03,70.15 441.52,66.41C442.04,62.43 442.3,58.22 442.11,53.95C441.91,49.41 441.33,44.64 440.18,39.95C438.96,34.97 437.2,29.8 434.78,24.94C432.22,19.81 428.94,14.61 425.01,10.04C420.89,5.25 415.89,0.63 410.42,-3.03C404.76,-6.81 398.19,-10.07 391.52,-12.13C384.73,-14.23 377.17,-15.42 370,-15.42C362.83,-15.42 355.27,-14.23 348.48,-12.13Z" style="vector-effect: non-scaling-stroke; fill: none; stroke: rgb(128, 128, 128); stroke-opacity: 1; stroke-width: 2px; opacity: 1;"/></g><g class="points"/><g class="text"/></g><g class="trace scatter traced8923072-8761-4497-baf3-3af08b7aa682" style="stroke-miterlimit: 2; opacity: 1;"><g class="fills"/><g class="errorbars"/><g class="lines"><path class="js-line" d="M361.09,35.21C358.22,35.84 355.37,36.82 352.73,38.03C350.13,39.23 347.63,40.74 345.37,42.41C343.16,44.05 341.11,45.94 339.31,47.94C337.56,49.89 336,52.03 334.68,54.21C333.4,56.32 332.34,58.57 331.48,60.8C330.65,62.96 330.03,65.2 329.59,67.39C329.16,69.51 328.92,71.65 328.83,73.73C328.74,75.74 328.82,77.75 329.01,79.68C329.2,81.55 329.53,83.39 329.95,85.15C330.36,86.85 330.88,88.51 331.48,90.09C332.06,91.62 332.73,93.09 333.46,94.5C334.17,95.86 334.95,97.17 335.78,98.41C336.58,99.61 337.45,100.76 338.35,101.84C339.23,102.89 340.15,103.88 341.1,104.82C342.03,105.73 342.99,106.59 343.97,107.39C344.93,108.17 345.92,108.91 346.92,109.59C347.91,110.26 348.92,110.87 349.94,111.44C350.94,112 351.96,112.51 352.99,112.98C354,113.44 355.03,113.85 356.06,114.22C357.08,114.59 358.11,114.92 359.15,115.2C360.18,115.48 361.21,115.72 362.25,115.92C363.28,116.12 364.31,116.27 365.35,116.39C366.38,116.51 367.42,116.58 368.45,116.62C369.48,116.66 370.52,116.66 371.55,116.62C372.58,116.58 373.62,116.51 374.65,116.39C375.69,116.27 376.72,116.12 377.75,115.92C378.79,115.72 379.82,115.48 380.85,115.2C381.89,114.92 382.92,114.59 383.94,114.22C384.97,113.85 386,113.44 387.01,112.98C388.04,112.51 389.06,112 390.06,111.44C391.08,110.87 392.09,110.26 393.08,109.59C394.08,108.91 395.07,108.17 396.03,107.39C397.01,106.59 397.97,105.73 398.9,104.82C399.85,103.88 400.77,102.89 401.65,101.84C402.55,100.76 403.42,99.61 404.22,98.41C405.05,97.17 405.83,95.86 406.54,94.5C407.27,93.09 407.94,91.62 408.52,90.09C409.12,88.51 409.64,86.85 410.05,85.15C410.47,83.39 410.8,81.55 410.99,79.68C411.18,77.75 411.26,75.74 411.17,73.73C411.08,71.65 410.84,69.51 410.41,67.39C409.97,65.2 409.35,62.96 408.52,60.8C407.66,58.57 406.6,56.32 405.32,54.21C404,52.03 402.44,49.89 400.69,47.94C398.89,45.94 396.84,44.05 394.63,42.41C392.37,40.74 389.87,39.23 387.27,38.03C384.63,36.82 381.78,35.84 378.91,35.21C376.02,34.57 372.97,34.23 370,34.23C367.03,34.23 363.98,34.57 361.09,35.21Z" style="vector-effect: non-scaling-stroke; fill: none; stroke: rgb(128, 128, 128); stroke-opacity: 1; stroke-width: 2px; opacity: 1;"/></g><g class="points"/><g class="text"/></g><g class="trace scatter trace8dbea105-ea91-49f2-b5da-0d5069208584" style="stroke-miterlimit: 2; opacity: 1;"><g class="fills"/><g class="errorbars"/><g class="lines"><path class="js-line" d="M365.51,57.16C364.04,57.42 362.58,57.82 361.19,58.34C359.81,58.85 358.47,59.5 357.21,60.24C355.97,60.97 354.78,61.81 353.69,62.73C352.62,63.63 351.62,64.65 350.73,65.7C349.85,66.74 349.06,67.86 348.37,69C347.7,70.12 347.11,71.3 346.63,72.49C346.15,73.66 345.77,74.86 345.48,76.06C345.19,77.23 345,78.43 344.89,79.61C344.78,80.76 344.75,81.92 344.8,83.05C344.85,84.16 344.97,85.26 345.16,86.33C345.34,87.38 345.59,88.41 345.89,89.4C346.19,90.37 346.56,91.32 346.96,92.23C347.36,93.12 347.8,93.99 348.29,94.82C348.77,95.63 349.29,96.41 349.85,97.15C350.4,97.88 350.98,98.57 351.59,99.22C352.19,99.86 352.82,100.47 353.48,101.04C354.13,101.6 354.8,102.12 355.49,102.6C356.17,103.08 356.87,103.53 357.58,103.93C358.29,104.33 359.01,104.69 359.75,105.02C360.48,105.35 361.23,105.64 361.98,105.89C362.72,106.14 363.48,106.35 364.24,106.53C365,106.71 365.77,106.85 366.54,106.96C367.3,107.07 368.07,107.13 368.84,107.17C369.61,107.21 370.39,107.21 371.16,107.17C371.93,107.13 372.7,107.07 373.46,106.96C374.23,106.85 375,106.71 375.76,106.53C376.52,106.35 377.28,106.14 378.02,105.89C378.77,105.64 379.52,105.35 380.25,105.02C380.99,104.69 381.71,104.33 382.42,103.93C383.13,103.53 383.83,103.08 384.51,102.6C385.2,102.12 385.87,101.6 386.52,101.04C387.18,100.47 387.81,99.86 388.41,99.22C389.02,98.57 389.6,97.88 390.15,97.15C390.71,96.41 391.23,95.63 391.71,94.82C392.2,93.99 392.64,93.12 393.04,92.23C393.44,91.32 393.81,90.37 394.11,89.4C394.41,88.41 394.66,87.38 394.84,86.33C395.03,85.26 395.15,84.16 395.2,83.05C395.25,81.92 395.22,80.76 395.11,79.61C395,78.43 394.81,77.23 394.52,76.06C394.23,74.86 393.85,73.66 393.37,72.49C392.89,71.3 392.3,70.12 391.63,69C390.94,67.86 390.15,66.74 389.27,65.7C388.38,64.65 387.38,63.63 386.31,62.73C385.22,61.81 384.03,60.97 382.79,60.24C381.53,59.5 380.19,58.85 378.81,58.34C377.42,57.82 375.96,57.42 374.49,57.16C373.02,56.89 371.5,56.75 370,56.75C368.5,56.75 366.98,56.89 365.51,57.16Z" style="vector-effect: non-scaling-stroke; fill: none; stroke: rgb(128, 128, 128); stroke-opacity: 1; stroke-width: 2px; opacity: 1;"/></g><g class="points"/><g class="text"/></g><g class="trace scatter tracef796714e-2871-4522-9a03-7151accd8c7f" style="stroke-miterlimit: 2; opacity: 1;"><g class="fills"/><g class="errorbars"/><g class="lines"><path class="js-line" d="M367.5,68.85C366.68,68.98 365.86,69.18 365.07,69.44C364.29,69.7 363.52,70.02 362.79,70.39C362.06,70.76 361.36,71.2 360.7,71.67C360.05,72.14 359.44,72.66 358.87,73.22C358.31,73.77 357.79,74.38 357.32,75C356.86,75.62 356.44,76.28 356.07,76.95C355.71,77.61 355.4,78.3 355.14,79C354.89,79.69 354.69,80.4 354.53,81.11C354.38,81.81 354.27,82.52 354.21,83.23C354.15,83.92 354.15,84.62 354.19,85.31C354.23,85.99 354.3,86.66 354.42,87.32C354.54,87.97 354.7,88.61 354.89,89.23C355.08,89.85 355.32,90.45 355.58,91.03C355.84,91.6 356.13,92.15 356.45,92.68C356.77,93.2 357.12,93.71 357.49,94.19C357.86,94.66 358.25,95.12 358.66,95.54C359.07,95.96 359.5,96.36 359.95,96.73C360.4,97.1 360.87,97.44 361.35,97.75C361.83,98.06 362.32,98.34 362.82,98.6C363.32,98.85 363.83,99.08 364.35,99.28C364.87,99.48 365.4,99.65 365.93,99.79C366.46,99.93 367.01,100.04 367.55,100.13C368.09,100.21 368.64,100.27 369.18,100.3C369.73,100.33 370.27,100.33 370.82,100.3C371.36,100.27 371.91,100.21 372.45,100.13C372.99,100.04 373.54,99.93 374.07,99.79C374.6,99.65 375.13,99.48 375.65,99.28C376.17,99.08 376.68,98.85 377.18,98.6C377.68,98.34 378.17,98.06 378.65,97.75C379.13,97.44 379.6,97.1 380.05,96.73C380.5,96.36 380.93,95.96 381.34,95.54C381.75,95.12 382.14,94.66 382.51,94.19C382.88,93.71 383.23,93.2 383.55,92.68C383.87,92.15 384.16,91.6 384.42,91.03C384.68,90.45 384.92,89.85 385.11,89.23C385.3,88.61 385.46,87.97 385.58,87.32C385.7,86.66 385.77,85.99 385.81,85.31C385.85,84.62 385.85,83.92 385.79,83.23C385.73,82.52 385.62,81.81 385.47,81.11C385.31,80.4 385.11,79.69 384.86,79C384.6,78.3 384.29,77.61 383.93,76.95C383.56,76.28 383.14,75.62 382.68,75C382.21,74.38 381.69,73.77 381.13,73.22C380.56,72.66 379.95,72.14 379.3,71.67C378.64,71.2 377.94,70.76 377.21,70.39C376.48,70.02 375.71,69.7 374.93,69.44C374.14,69.18 373.32,68.98 372.5,68.85C371.68,68.72 370.83,68.65 370,68.65C369.17,68.65 368.32,68.72 367.5,68.85Z" style="vector-effect: non-scaling-stroke; fill: none; stroke: rgb(128, 128, 128); stroke-opacity: 1; stroke-width: 2px; opacity: 1;"/></g><g class="points"/><g class="text"/></g><g class="trace scatter tracee2ee1b21-2a78-440e-8649-04f81e1ff932" style="stroke-miterlimit: 2; opacity: 1;"><g class="fills"/><g class="errorbars"/><g class="lines"><path class="js-line" d="M368.53,75.55C368.05,75.62 367.57,75.73 367.1,75.87C366.63,76.01 366.17,76.19 365.73,76.4C365.29,76.61 364.87,76.85 364.47,77.11C364.07,77.37 363.69,77.66 363.33,77.98C362.98,78.29 362.64,78.64 362.34,79C362.04,79.36 361.76,79.74 361.51,80.13C361.26,80.52 361.04,80.92 360.85,81.34C360.66,81.75 360.51,82.19 360.38,82.62C360.25,83.05 360.15,83.48 360.08,83.92C360.01,84.35 359.97,84.79 359.96,85.23C359.95,85.66 359.97,86.09 360.01,86.52C360.05,86.94 360.12,87.36 360.22,87.77C360.31,88.18 360.44,88.58 360.58,88.97C360.72,89.35 360.89,89.73 361.08,90.09C361.27,90.45 361.48,90.8 361.7,91.13C361.92,91.46 362.16,91.78 362.42,92.08C362.68,92.38 362.96,92.66 363.25,92.92C363.54,93.18 363.84,93.43 364.15,93.65C364.46,93.87 364.79,94.07 365.12,94.26C365.45,94.44 365.8,94.61 366.15,94.76C366.5,94.91 366.86,95.03 367.22,95.14C367.58,95.24 367.95,95.33 368.32,95.39C368.69,95.45 369.07,95.49 369.44,95.51C369.81,95.53 370.19,95.53 370.56,95.51C370.93,95.49 371.31,95.45 371.68,95.39C372.05,95.33 372.42,95.24 372.78,95.14C373.14,95.03 373.5,94.91 373.85,94.76C374.2,94.61 374.55,94.44 374.88,94.26C375.21,94.07 375.54,93.87 375.85,93.65C376.16,93.43 376.46,93.18 376.75,92.92C377.04,92.66 377.32,92.38 377.58,92.08C377.84,91.78 378.08,91.46 378.3,91.13C378.52,90.8 378.73,90.45 378.92,90.09C379.11,89.73 379.28,89.35 379.42,88.97C379.56,88.58 379.69,88.18 379.78,87.77C379.88,87.36 379.95,86.94 379.99,86.52C380.03,86.09 380.05,85.66 380.04,85.23C380.03,84.79 379.99,84.35 379.92,83.92C379.85,83.48 379.75,83.05 379.62,82.62C379.49,82.19 379.34,81.75 379.15,81.34C378.96,80.92 378.74,80.52 378.49,80.13C378.24,79.74 377.96,79.36 377.66,79C377.36,78.64 377.02,78.29 376.67,77.98C376.31,77.66 375.93,77.37 375.53,77.11C375.13,76.85 374.71,76.61 374.27,76.4C373.83,76.19 373.37,76.01 372.9,75.87C372.43,75.73 371.95,75.62 371.47,75.55C370.99,75.48 370.49,75.44 370,75.44C369.51,75.44 369.01,75.48 368.53,75.55Z" style="vector-effect: non-scaling-stroke; fill: none; stroke: rgb(128, 128, 128); stroke-opacity: 1; stroke-width: 2px; opacity: 1;"/></g><g class="points"/><g class="text"/></g><g class="trace scatter trace262efc03-a1b7-488d-811e-3dc4fcc74fca" style="stroke-miterlimit: 2; opacity: 1;"><g class="fills"/><g class="errorbars"/><g class="lines"><path class="js-line" d="M369.11,79.56C368.82,79.6 368.52,79.66 368.24,79.74C367.95,79.82 367.67,79.93 367.4,80.05C367.13,80.17 366.87,80.3 366.62,80.46C366.37,80.61 366.13,80.79 365.91,80.98C365.69,81.17 365.48,81.37 365.28,81.58C365.09,81.79 364.9,82.02 364.74,82.26C364.58,82.5 364.43,82.75 364.3,83C364.17,83.25 364.05,83.51 363.96,83.78C363.87,84.04 363.8,84.32 363.74,84.59C363.68,84.86 363.64,85.14 363.62,85.41C363.6,85.69 363.6,85.97 363.62,86.24C363.64,86.51 363.66,86.78 363.71,87.05C363.76,87.31 363.83,87.58 363.91,87.83C363.99,88.08 364.09,88.33 364.2,88.57C364.31,88.81 364.43,89.04 364.57,89.26C364.71,89.48 364.86,89.7 365.02,89.9C365.18,90.1 365.36,90.29 365.54,90.47C365.73,90.65 365.93,90.82 366.13,90.98C366.33,91.13 366.54,91.27 366.76,91.4C366.98,91.53 367.21,91.65 367.44,91.75C367.67,91.85 367.9,91.94 368.14,92.01C368.38,92.08 368.63,92.14 368.88,92.18C369.13,92.22 369.37,92.25 369.62,92.27C369.87,92.29 370.13,92.29 370.38,92.27C370.63,92.25 370.87,92.22 371.12,92.18C371.37,92.14 371.62,92.08 371.86,92.01C372.1,91.94 372.33,91.85 372.56,91.75C372.79,91.65 373.02,91.53 373.24,91.4C373.46,91.27 373.67,91.13 373.87,90.98C374.07,90.82 374.27,90.65 374.46,90.47C374.64,90.29 374.82,90.1 374.98,89.9C375.14,89.7 375.29,89.48 375.43,89.26C375.57,89.04 375.69,88.81 375.8,88.57C375.91,88.33 376.01,88.08 376.09,87.83C376.17,87.58 376.24,87.31 376.29,87.05C376.34,86.78 376.36,86.51 376.38,86.24C376.4,85.97 376.4,85.69 376.38,85.41C376.36,85.14 376.32,84.86 376.26,84.59C376.2,84.32 376.13,84.04 376.04,83.78C375.95,83.51 375.83,83.25 375.7,83C375.57,82.75 375.42,82.5 375.26,82.26C375.1,82.02 374.91,81.79 374.72,81.58C374.52,81.37 374.31,81.17 374.09,80.98C373.87,80.79 373.63,80.61 373.38,80.46C373.13,80.3 372.87,80.17 372.6,80.05C372.33,79.93 372.05,79.82 371.76,79.74C371.48,79.66 371.18,79.6 370.89,79.56C370.6,79.52 370.3,79.5 370,79.5C369.7,79.5 369.4,79.52 369.11,79.56Z" style="vector-effect: non-scaling-stroke; fill: none; stroke: rgb(255, 0, 0); stroke-opacity: 1; stroke-width: 2px; opacity: 1;"/></g><g class="points"/><g class="text"/></g><g class="trace scatter trace6378e905-18de-4d61-b8f8-9520e6d0864c" style="stroke-miterlimit: 2; opacity: 1;"><g class="fills"/><g class="errorbars"/><g class="lines"><path class="js-line" d="M370,240.5Q370,241.13 370,241.46C370,241.82 370,242.19 370,242.57C370,242.98 370,243.4 370,243.84C370,244.31 370,244.81 370,245.32C370,245.87 370,246.44 370,247.03C370,247.67 370,248.33 370,249.02C370,249.77 370,250.54 370,251.35C370,252.22 370,253.13 370,254.07C370,255.1 370,256.16 370,257.28C370,258.49 370,259.76 370,261.08C370,262.52 370,264.03 370,265.61C370,267.34 370,269.16 370,271.06C370,273.15 370,275.35 370,277.66C370,280.22 370,282.92 370,285.77C370,288.95 370,292.29 370,295.85C370,299.86 370,304.1 370,308.64C370,313.8 370,319.28 370,325.2C370,332.04 370,339.34 370,347.31C370,356.7 370,366.79 370,377.99C370,391.55 370,406.24 370,422.97C370,444.07 370,467.14 370,494.53C370,531.45 370,572.11 370,624.58C370,705 370,789.27 370,930.1C370,1245.65 370,2464 370,2464C370,2464 370,-2144 370,-2144C370,-2144 370,-925.65 370,-610.1C370,-469.27 370,-385 370,-304.58C370,-252.11 370,-211.45 370,-174.53C370,-147.14 370,-124.07 370,-102.97C370,-86.24 370,-71.55 370,-57.99C370,-46.79 370,-36.7 370,-27.31C370,-19.34 370,-12.04 370,-5.2C370,0.72 370,6.2 370,11.36C370,15.9 370,20.14 370,24.15C370,27.71 370,31.05 370,34.23C370,37.08 370,39.78 370,42.34C370,44.65 370,46.85 370,48.94C370,50.84 370,52.66 370,54.39C370,55.97 370,57.48 370,58.92C370,60.24 370,61.51 370,62.72C370,63.84 370,64.9 370,65.93C370,66.87 370,67.78 370,68.65C370,69.46 370,70.23 370,70.98C370,71.67 370,72.33 370,72.97C370,73.56 370,74.13 370,74.68C370,75.19 370,75.69 370,76.16C370,76.6 370,77.02 370,77.43C370,77.81 370,78.18 370,78.54Q370,78.87 370,79.5" style="vector-effect: non-scaling-stroke; fill: none; stroke: rgb(255, 165, 0); stroke-opacity: 1; stroke-width: 2px; opacity: 1;"/></g><g class="points"/><g class="text"/></g><g class="trace scatter trace69e5d5a6-1ada-490d-bd25-03fb1502ec85" style="stroke-miterlimit: 2; opacity: 1;"><g class="fills"/><g class="errorbars"/><g class="lines"><path class="js-line" d="M367,239.76Q366.71,240.31 366.56,240.6C366.39,240.91 366.22,241.23 366.04,241.56C365.85,241.91 365.64,242.28 365.43,242.66C365.2,243.07 364.97,243.49 364.72,243.93C364.45,244.4 364.17,244.89 363.88,245.39C363.56,245.93 363.24,246.49 362.89,247.07C362.52,247.69 362.13,248.34 361.72,249.01C361.27,249.73 360.8,250.48 360.31,251.26C359.78,252.1 359.22,252.96 358.63,253.86C357.99,254.83 357.3,255.85 356.58,256.89C355.79,258.02 354.96,259.2 354.07,260.41C353.1,261.73 352.07,263.11 350.97,264.52C349.76,266.07 348.48,267.68 347.09,269.33C345.56,271.14 343.93,273.02 342.16,274.94C340.2,277.06 338.12,279.27 335.83,281.5C333.28,283.98 330.54,286.55 327.52,289.12C324.14,292 320.5,294.96 316.45,297.86C311.89,301.12 306.93,304.47 301.4,307.59C295.12,311.13 288.22,314.72 280.57,317.72C271.79,321.16 262.06,324.53 251.43,326.58C239.16,328.95 225.33,330.84 210.97,330.07C194.36,329.17 175.29,326.64 157.64,319.6C137.45,311.55 114.44,298.88 97.56,281.52C78.9,262.33 60.64,234.3 53.09,206.86C45.25,178.37 45.25,141.63 53.09,113.14C60.64,85.7 78.9,57.67 97.56,38.48C114.44,21.12 137.45,8.45 157.64,0.4C175.29,-6.64 194.36,-9.17 210.97,-10.07C225.33,-10.84 239.16,-8.95 251.43,-6.58C262.06,-4.53 271.79,-1.16 280.57,2.28C288.22,5.28 295.12,8.87 301.4,12.41C306.93,15.53 311.89,18.88 316.45,22.14C320.5,25.04 324.14,28 327.52,30.88C330.54,33.45 333.28,36.02 335.83,38.5C338.12,40.73 340.2,42.94 342.16,45.06C343.93,46.98 345.56,48.86 347.09,50.67C348.48,52.32 349.76,53.93 350.97,55.48C352.07,56.89 353.1,58.27 354.07,59.59C354.96,60.8 355.79,61.98 356.58,63.11C357.3,64.15 357.99,65.17 358.63,66.14C359.22,67.04 359.78,67.9 360.31,68.74C360.8,69.52 361.27,70.27 361.72,70.99C362.13,71.66 362.52,72.31 362.89,72.93C363.24,73.51 363.56,74.07 363.88,74.61C364.17,75.11 364.45,75.6 364.72,76.07C364.97,76.51 365.2,76.93 365.43,77.34C365.64,77.72 365.85,78.09 366.04,78.44C366.22,78.77 366.39,79.09 366.56,79.4Q366.71,79.69 367,80.24" style="vector-effect: non-scaling-stroke; fill: none; stroke: rgb(0, 128, 0); stroke-opacity: 1; stroke-width: 2px; opacity: 1;"/></g><g class="points"/><g class="text"/></g><g class="trace scatter traced23d2189-0f1a-4623-9b71-7686b6bb9b67" style="stroke-miterlimit: 2; opacity: 1;"><g class="fills"/><g class="errorbars"/><g class="lines"><path class="js-line" d="M364.74,237.74Q364.24,238.08 363.97,238.26C363.69,238.45 363.4,238.65 363.09,238.85C362.76,239.07 362.42,239.28 362.07,239.51C361.69,239.75 361.31,240 360.9,240.25C360.46,240.52 360.01,240.81 359.53,241.09C359.02,241.4 358.49,241.71 357.93,242.02C357.34,242.36 356.72,242.7 356.07,243.05C355.38,243.42 354.66,243.81 353.9,244.19C353.08,244.6 352.23,245.02 351.34,245.44C350.38,245.89 349.38,246.35 348.33,246.8C347.2,247.28 346.01,247.77 344.77,248.24C343.43,248.75 342.03,249.25 340.56,249.73C338.97,250.25 337.3,250.76 335.55,251.22C333.66,251.72 331.67,252.2 329.59,252.61C327.33,253.05 324.96,253.46 322.48,253.75C319.8,254.07 316.98,254.31 314.05,254.39C310.87,254.48 307.52,254.44 304.08,254.17C300.35,253.87 296.43,253.4 292.46,252.58C288.15,251.69 283.65,250.52 279.19,248.88C274.37,247.11 269.38,244.93 264.6,242.18C259.47,239.23 254.23,235.7 249.47,231.54C244.41,227.12 239.42,221.93 235.23,216.21C230.83,210.21 226.81,203.33 223.88,196.17C220.85,188.79 218.58,180.58 217.51,172.51C216.43,164.36 216.43,155.64 217.51,147.49C218.58,139.42 220.85,131.21 223.88,123.83C226.81,116.67 230.83,109.79 235.23,103.79C239.42,98.07 244.41,92.88 249.47,88.46C254.23,84.3 259.47,80.77 264.6,77.82C269.38,75.07 274.37,72.89 279.19,71.12C283.65,69.48 288.15,68.31 292.46,67.42C296.43,66.6 300.35,66.13 304.08,65.83C307.52,65.56 310.87,65.52 314.05,65.61C316.98,65.69 319.8,65.93 322.48,66.25C324.96,66.54 327.33,66.95 329.59,67.39C331.67,67.8 333.66,68.28 335.55,68.78C337.3,69.24 338.97,69.75 340.56,70.27C342.03,70.75 343.43,71.25 344.77,71.76C346.01,72.23 347.2,72.72 348.33,73.2C349.38,73.65 350.38,74.11 351.34,74.56C352.23,74.98 353.08,75.4 353.9,75.81C354.66,76.19 355.38,76.58 356.07,76.95C356.72,77.3 357.34,77.64 357.93,77.98C358.49,78.29 359.02,78.6 359.53,78.91C360.01,79.19 360.46,79.48 360.9,79.75C361.31,80 361.69,80.25 362.07,80.49C362.42,80.72 362.76,80.93 363.09,81.15C363.4,81.35 363.69,81.55 363.97,81.74Q364.24,81.92 364.74,82.26" style="vector-effect: non-scaling-stroke; fill: none; stroke: rgb(0, 128, 0); stroke-opacity: 1; stroke-width: 2px; opacity: 1;"/></g><g class="points"/><g class="text"/></g><g class="trace scatter trace960f85b8-f51d-44b7-89b2-07c73949276c" style="stroke-miterlimit: 2; opacity: 1;"><g class="fills"/><g class="errorbars"/><g class="lines"><path class="js-line" d="M363.67,235Q363.09,235.08 362.79,235.12C362.47,235.16 362.13,235.2 361.78,235.24C361.41,235.28 361.03,235.32 360.63,235.36C360.21,235.4 359.77,235.44 359.32,235.48C358.84,235.52 358.34,235.56 357.83,235.59C357.28,235.62 356.71,235.65 356.12,235.67C355.49,235.69 354.84,235.72 354.17,235.73C353.45,235.74 352.71,235.73 351.94,235.72C351.12,235.71 350.27,235.68 349.4,235.64C348.47,235.59 347.5,235.53 346.51,235.44C345.45,235.35 344.36,235.23 343.23,235.08C342.03,234.92 340.79,234.73 339.52,234.5C338.16,234.25 336.77,233.96 335.34,233.61C333.82,233.24 332.25,232.81 330.65,232.31C328.95,231.78 327.21,231.19 325.45,230.49C323.58,229.75 321.67,228.92 319.76,227.97C317.73,226.97 315.66,225.86 313.62,224.6C311.46,223.27 309.28,221.8 307.16,220.17C304.92,218.45 302.69,216.56 300.56,214.5C298.33,212.34 296.14,209.98 294.12,207.45C292.01,204.81 289.99,201.95 288.19,198.94C286.33,195.82 284.62,192.48 283.2,189.03C281.74,185.49 280.49,181.74 279.57,177.95C278.64,174.1 277.98,170.07 277.66,166.08C277.34,162.06 277.34,157.94 277.66,153.92C277.98,149.93 278.64,145.9 279.57,142.05C280.49,138.26 281.74,134.51 283.2,130.97C284.62,127.52 286.33,124.18 288.19,121.06C289.99,118.05 292.01,115.19 294.12,112.55C296.14,110.02 298.33,107.66 300.56,105.5C302.69,103.44 304.92,101.55 307.16,99.83C309.28,98.2 311.46,96.73 313.62,95.4C315.66,94.14 317.73,93.03 319.76,92.03C321.67,91.08 323.58,90.25 325.45,89.51C327.21,88.81 328.95,88.22 330.65,87.69C332.25,87.19 333.82,86.76 335.34,86.39C336.77,86.04 338.16,85.75 339.52,85.5C340.79,85.27 342.03,85.08 343.23,84.92C344.36,84.77 345.45,84.65 346.51,84.56C347.5,84.47 348.47,84.41 349.4,84.36C350.27,84.32 351.12,84.29 351.94,84.28C352.71,84.27 353.45,84.26 354.17,84.27C354.84,84.28 355.49,84.31 356.12,84.33C356.71,84.35 357.28,84.38 357.83,84.41C358.34,84.44 358.84,84.48 359.32,84.52C359.77,84.56 360.21,84.6 360.63,84.64C361.03,84.68 361.41,84.72 361.78,84.76C362.13,84.8 362.47,84.84 362.79,84.88Q363.09,84.92 363.67,85" style="vector-effect: non-scaling-stroke; fill: none; stroke: rgb(0, 128, 0); stroke-opacity: 1; stroke-width: 2px; opacity: 1;"/></g><g class="points"/><g class="text"/></g><g class="trace scatter trace09ee7069-c263-4fc9-b0bd-a2e9b7af90ec" style="stroke-miterlimit: 2; opacity: 1;"><g class="fills"/><g class="errorbars"/><g class="lines"><path class="js-line" d="M363.91,232.17Q363.38,232 363.1,231.91C362.8,231.81 362.5,231.71 362.18,231.6C361.85,231.49 361.5,231.37 361.15,231.24C360.77,231.1 360.38,230.96 359.98,230.81C359.56,230.65 359.13,230.48 358.68,230.3C358.2,230.11 357.71,229.9 357.21,229.69C356.68,229.46 356.14,229.22 355.58,228.97C354.99,228.7 354.37,228.42 353.75,228.12C353.09,227.8 352.42,227.46 351.73,227.1C351,226.72 350.25,226.31 349.49,225.88C348.69,225.42 347.86,224.94 347.03,224.42C346.15,223.87 345.25,223.29 344.35,222.68C343.4,222.03 342.42,221.35 341.45,220.62C340.42,219.85 339.39,219.03 338.35,218.16C337.26,217.25 336.16,216.29 335.07,215.27C333.93,214.2 332.78,213.06 331.66,211.86C330.49,210.61 329.32,209.29 328.19,207.9C327.01,206.45 325.85,204.93 324.74,203.33C323.59,201.67 322.47,199.94 321.42,198.13C320.34,196.26 319.3,194.31 318.35,192.29C317.38,190.22 316.47,188.07 315.67,185.86C314.85,183.6 314.12,181.26 313.51,178.89C312.89,176.48 312.38,174 312,171.51C311.62,168.99 311.35,166.43 311.22,163.87C311.09,161.3 311.09,158.7 311.22,156.13C311.35,153.57 311.62,151.01 312,148.49C312.38,146 312.89,143.52 313.51,141.11C314.12,138.74 314.85,136.4 315.67,134.14C316.47,131.93 317.38,129.78 318.35,127.71C319.3,125.69 320.34,123.74 321.42,121.87C322.47,120.06 323.59,118.33 324.74,116.67C325.85,115.07 327.01,113.55 328.19,112.1C329.32,110.71 330.49,109.39 331.66,108.14C332.78,106.94 333.93,105.8 335.07,104.73C336.16,103.71 337.26,102.75 338.35,101.84C339.39,100.97 340.42,100.15 341.45,99.38C342.42,98.65 343.4,97.97 344.35,97.32C345.25,96.71 346.15,96.13 347.03,95.58C347.86,95.06 348.69,94.58 349.49,94.12C350.25,93.69 351,93.28 351.73,92.9C352.42,92.54 353.09,92.2 353.75,91.88C354.37,91.58 354.99,91.3 355.58,91.03C356.14,90.78 356.68,90.54 357.21,90.31C357.71,90.1 358.2,89.89 358.68,89.7C359.13,89.52 359.56,89.35 359.98,89.19C360.38,89.04 360.77,88.9 361.15,88.76C361.5,88.63 361.85,88.51 362.18,88.4C362.5,88.29 362.8,88.19 363.1,88.09Q363.38,88 363.91,87.83" style="vector-effect: non-scaling-stroke; fill: none; stroke: rgb(0, 128, 0); stroke-opacity: 1; stroke-width: 2px; opacity: 1;"/></g><g class="points"/><g class="text"/></g><g class="trace scatter trace88836c48-3a0c-44ab-ae35-bd0c46d64572" style="stroke-miterlimit: 2; opacity: 1;"><g class="fills"/><g class="errorbars"/><g class="lines"><path class="js-line" d="M365.27,229.8Q364.88,229.44 364.67,229.25C364.45,229.05 364.22,228.83 363.99,228.61C363.74,228.38 363.49,228.14 363.23,227.89C362.96,227.62 362.68,227.34 362.39,227.06C362.09,226.76 361.78,226.45 361.46,226.13C361.12,225.79 360.78,225.43 360.43,225.06C360.06,224.67 359.68,224.26 359.29,223.84C358.88,223.4 358.47,222.94 358.05,222.46C357.61,221.96 357.16,221.44 356.7,220.9C356.22,220.33 355.73,219.73 355.24,219.12C354.72,218.47 354.2,217.8 353.67,217.11C353.12,216.38 352.56,215.63 352,214.85C351.42,214.03 350.83,213.18 350.25,212.3C349.64,211.38 349.02,210.43 348.42,209.45C347.79,208.42 347.16,207.36 346.55,206.26C345.91,205.12 345.28,203.95 344.67,202.74C344.03,201.48 343.41,200.18 342.81,198.85C342.19,197.47 341.58,196.06 341.01,194.61C340.42,193.12 339.86,191.58 339.34,190.01C338.8,188.4 338.29,186.75 337.83,185.08C337.36,183.37 336.93,181.62 336.55,179.85C336.16,178.05 335.82,176.22 335.54,174.37C335.25,172.5 335.02,170.6 334.85,168.7C334.67,166.78 334.55,164.84 334.49,162.91C334.43,160.97 334.43,159.03 334.49,157.09C334.55,155.16 334.67,153.22 334.85,151.3C335.02,149.4 335.25,147.5 335.54,145.63C335.82,143.78 336.16,141.95 336.55,140.15C336.93,138.38 337.36,136.63 337.83,134.92C338.29,133.25 338.8,131.6 339.34,129.99C339.86,128.42 340.42,126.88 341.01,125.39C341.58,123.94 342.19,122.53 342.81,121.15C343.41,119.82 344.03,118.52 344.67,117.26C345.28,116.05 345.91,114.88 346.55,113.74C347.16,112.64 347.79,111.58 348.42,110.55C349.02,109.57 349.64,108.62 350.25,107.7C350.83,106.82 351.42,105.97 352,105.15C352.56,104.37 353.12,103.62 353.67,102.89C354.2,102.2 354.72,101.53 355.24,100.88C355.73,100.27 356.22,99.67 356.7,99.1C357.16,98.56 357.61,98.04 358.05,97.54C358.47,97.06 358.88,96.6 359.29,96.16C359.68,95.74 360.06,95.33 360.43,94.94C360.78,94.57 361.12,94.21 361.46,93.87C361.78,93.55 362.09,93.24 362.39,92.94C362.68,92.66 362.96,92.38 363.23,92.11C363.49,91.86 363.74,91.62 363.99,91.39C364.22,91.17 364.45,90.95 364.67,90.75Q364.88,90.56 365.27,90.2" style="vector-effect: non-scaling-stroke; fill: none; stroke: rgb(0, 128, 0); stroke-opacity: 1; stroke-width: 2px; opacity: 1;"/></g><g class="points"/><g class="text"/></g><g class="trace scatter traced965b81d-3c92-4a39-a687-04e01f15dc15" style="stroke-miterlimit: 2; opacity: 1;"><g class="fills"/><g class="errorbars"/><g class="lines"><path class="js-line" d="M367.44,228.25Q367.22,227.77 367.11,227.52C366.99,227.25 366.88,226.98 366.76,226.69C366.63,226.39 366.49,226.07 366.36,225.75C366.22,225.41 366.08,225.06 365.93,224.7C365.77,224.32 365.61,223.92 365.45,223.52C365.28,223.09 365.1,222.65 364.92,222.2C364.73,221.72 364.54,221.23 364.35,220.72C364.15,220.19 363.94,219.63 363.73,219.07C363.51,218.48 363.28,217.87 363.06,217.24C362.82,216.58 362.59,215.9 362.35,215.21C362.1,214.48 361.85,213.73 361.6,212.96C361.34,212.15 361.07,211.33 360.81,210.48C360.54,209.6 360.26,208.7 359.99,207.77C359.71,206.8 359.42,205.81 359.15,204.8C358.86,203.75 358.59,202.68 358.31,201.58C358.02,200.44 357.74,199.28 357.47,198.1C357.19,196.88 356.91,195.63 356.65,194.36C356.38,193.05 356.12,191.72 355.88,190.37C355.63,188.98 355.39,187.58 355.17,186.15C354.94,184.69 354.73,183.21 354.54,181.72C354.34,180.2 354.17,178.65 354.01,177.1C353.85,175.52 353.72,173.93 353.6,172.33C353.48,170.71 353.38,169.08 353.31,167.44C353.24,165.8 353.19,164.14 353.17,162.49C353.15,160.83 353.15,159.17 353.17,157.51C353.19,155.86 353.24,154.2 353.31,152.56C353.38,150.92 353.48,149.29 353.6,147.67C353.72,146.07 353.85,144.48 354.01,142.9C354.17,141.35 354.34,139.8 354.54,138.28C354.73,136.79 354.94,135.31 355.17,133.85C355.39,132.42 355.63,131.02 355.88,129.63C356.12,128.28 356.38,126.95 356.65,125.64C356.91,124.37 357.19,123.12 357.47,121.9C357.74,120.72 358.02,119.56 358.31,118.42C358.59,117.32 358.86,116.25 359.15,115.2C359.42,114.19 359.71,113.2 359.99,112.23C360.26,111.3 360.54,110.4 360.81,109.52C361.07,108.67 361.34,107.85 361.6,107.04C361.85,106.27 362.1,105.52 362.35,104.79C362.59,104.1 362.82,103.42 363.06,102.76C363.28,102.13 363.51,101.52 363.73,100.93C363.94,100.37 364.15,99.81 364.35,99.28C364.54,98.77 364.73,98.28 364.92,97.8C365.1,97.35 365.28,96.91 365.45,96.48C365.61,96.08 365.77,95.68 365.93,95.3C366.08,94.94 366.22,94.59 366.36,94.25C366.49,93.93 366.63,93.61 366.76,93.31C366.88,93.02 366.99,92.75 367.11,92.48Q367.22,92.23 367.44,91.75" style="vector-effect: non-scaling-stroke; fill: none; stroke: rgb(0, 128, 0); stroke-opacity: 1; stroke-width: 2px; opacity: 1;"/></g><g class="points"/><g class="text"/></g><g class="trace scatter trace2d95c2d5-8d2f-4c6a-8318-422a84e4b102" style="stroke-miterlimit: 2; opacity: 1;"><g class="fills"/><g class="errorbars"/><g class="lines"><path class="js-line" d="M370,227.72Q370,227.19 370,226.92C370,226.63 370,226.33 370,226.02C370,225.7 370,225.36 370,225.02C370,224.65 370,224.28 370,223.89C370,223.48 370,223.07 370,222.64C370,222.19 370,221.72 370,221.24C370,220.73 370,220.21 370,219.68C370,219.12 370,218.54 370,217.95C370,217.33 370,216.69 370,216.04C370,215.35 370,214.65 370,213.93C370,213.18 370,212.41 370,211.62C370,210.8 370,209.95 370,209.09C370,208.19 370,207.27 370,206.33C370,205.36 370,204.36 370,203.35C370,202.3 370,201.22 370,200.13C370,199 370,197.85 370,196.68C370,195.47 370,194.24 370,193C370,191.72 370,190.42 370,189.1C370,187.75 370,186.39 370,185.01C370,183.6 370,182.17 370,180.73C370,179.27 370,177.79 370,176.3C370,174.79 370,173.26 370,171.73C370,170.19 370,168.63 370,167.08C370,165.52 370,163.94 370,162.37C370,160.79 370,159.21 370,157.63C370,156.06 370,154.48 370,152.92C370,151.37 370,149.81 370,148.27C370,146.74 370,145.21 370,143.7C370,142.21 370,140.73 370,139.27C370,137.83 370,136.4 370,134.99C370,133.61 370,132.25 370,130.9C370,129.58 370,128.28 370,127C370,125.76 370,124.53 370,123.32C370,122.15 370,121 370,119.87C370,118.78 370,117.7 370,116.65C370,115.64 370,114.64 370,113.67C370,112.73 370,111.81 370,110.91C370,110.05 370,109.2 370,108.38C370,107.59 370,106.82 370,106.07C370,105.35 370,104.65 370,103.96C370,103.31 370,102.67 370,102.05C370,101.46 370,100.88 370,100.32C370,99.79 370,99.27 370,98.76C370,98.28 370,97.81 370,97.36C370,96.93 370,96.52 370,96.11C370,95.72 370,95.35 370,94.98C370,94.64 370,94.3 370,93.98C370,93.67 370,93.37 370,93.08Q370,92.81 370,92.28" style="vector-effect: non-scaling-stroke; fill: none; stroke: rgb(0, 128, 0); stroke-opacity: 1; stroke-width: 2px; opacity: 1;"/></g><g class="points"/><g class="text"/></g><g class="trace scatter tracea63adee8-618b-4c3a-bc9e-7d537f130172" style="stroke-miterlimit: 2; opacity: 1;"><g class="fills"/><g class="errorbars"/><g class="lines"><path class="js-line" d="M372.56,228.25Q372.78,227.77 372.89,227.52C373.01,227.25 373.12,226.98 373.24,226.69C373.37,226.39 373.51,226.07 373.64,225.75C373.78,225.41 373.92,225.06 374.07,224.7C374.23,224.32 374.39,223.92 374.55,223.52C374.72,223.09 374.9,222.65 375.08,222.2C375.27,221.72 375.46,221.23 375.65,220.72C375.85,220.19 376.06,219.63 376.27,219.07C376.49,218.48 376.72,217.87 376.94,217.24C377.18,216.58 377.41,215.9 377.65,215.21C377.9,214.48 378.15,213.73 378.4,212.96C378.66,212.15 378.93,211.33 379.19,210.48C379.46,209.6 379.74,208.7 380.01,207.77C380.29,206.8 380.58,205.81 380.85,204.8C381.14,203.75 381.41,202.68 381.69,201.58C381.98,200.44 382.26,199.28 382.53,198.1C382.81,196.88 383.09,195.63 383.35,194.36C383.62,193.05 383.88,191.72 384.12,190.37C384.37,188.98 384.61,187.58 384.83,186.15C385.06,184.69 385.27,183.21 385.46,181.72C385.66,180.2 385.83,178.65 385.99,177.1C386.15,175.52 386.28,173.93 386.4,172.33C386.52,170.71 386.62,169.08 386.69,167.44C386.76,165.8 386.81,164.14 386.83,162.49C386.85,160.83 386.85,159.17 386.83,157.51C386.81,155.86 386.76,154.2 386.69,152.56C386.62,150.92 386.52,149.29 386.4,147.67C386.28,146.07 386.15,144.48 385.99,142.9C385.83,141.35 385.66,139.8 385.46,138.28C385.27,136.79 385.06,135.31 384.83,133.85C384.61,132.42 384.37,131.02 384.12,129.63C383.88,128.28 383.62,126.95 383.35,125.64C383.09,124.37 382.81,123.12 382.53,121.9C382.26,120.72 381.98,119.56 381.69,118.42C381.41,117.32 381.14,116.25 380.85,115.2C380.58,114.19 380.29,113.2 380.01,112.23C379.74,111.3 379.46,110.4 379.19,109.52C378.93,108.67 378.66,107.85 378.4,107.04C378.15,106.27 377.9,105.52 377.65,104.79C377.41,104.1 377.18,103.42 376.94,102.76C376.72,102.13 376.49,101.52 376.27,100.93C376.06,100.37 375.85,99.81 375.65,99.28C375.46,98.77 375.27,98.28 375.08,97.8C374.9,97.35 374.72,96.91 374.55,96.48C374.39,96.08 374.23,95.68 374.07,95.3C373.92,94.94 373.78,94.59 373.64,94.25C373.51,93.93 373.37,93.61 373.24,93.31C373.12,93.02 373.01,92.75 372.89,92.48Q372.78,92.23 372.56,91.75" style="vector-effect: non-scaling-stroke; fill: none; stroke: rgb(0, 128, 0); stroke-opacity: 1; stroke-width: 2px; opacity: 1;"/></g><g class="points"/><g class="text"/></g><g class="trace scatter trace1bf326c8-5caf-4965-a6d9-f37150b4e1ce" style="stroke-miterlimit: 2; opacity: 1;"><g class="fills"/><g class="errorbars"/><g class="lines"><path class="js-line" d="M374.73,229.8Q375.12,229.44 375.33,229.25C375.55,229.05 375.78,228.83 376.01,228.61C376.26,228.38 376.51,228.14 376.77,227.89C377.04,227.62 377.32,227.34 377.61,227.06C377.91,226.76 378.22,226.45 378.54,226.13C378.88,225.79 379.22,225.43 379.57,225.06C379.94,224.67 380.32,224.26 380.71,223.84C381.12,223.4 381.53,222.94 381.95,222.46C382.39,221.96 382.84,221.44 383.3,220.9C383.78,220.33 384.27,219.73 384.76,219.12C385.28,218.47 385.8,217.8 386.33,217.11C386.88,216.38 387.44,215.63 388,214.85C388.58,214.03 389.17,213.18 389.75,212.3C390.36,211.38 390.98,210.43 391.58,209.45C392.21,208.42 392.84,207.36 393.45,206.26C394.09,205.12 394.72,203.95 395.33,202.74C395.97,201.48 396.59,200.18 397.19,198.85C397.81,197.47 398.42,196.06 398.99,194.61C399.58,193.12 400.14,191.58 400.66,190.01C401.2,188.4 401.71,186.75 402.17,185.08C402.64,183.37 403.07,181.62 403.45,179.85C403.84,178.05 404.18,176.22 404.46,174.37C404.75,172.5 404.98,170.6 405.15,168.7C405.33,166.78 405.45,164.84 405.51,162.91C405.57,160.97 405.57,159.03 405.51,157.09C405.45,155.16 405.33,153.22 405.15,151.3C404.98,149.4 404.75,147.5 404.46,145.63C404.18,143.78 403.84,141.95 403.45,140.15C403.07,138.38 402.64,136.63 402.17,134.92C401.71,133.25 401.2,131.6 400.66,129.99C400.14,128.42 399.58,126.88 398.99,125.39C398.42,123.94 397.81,122.53 397.19,121.15C396.59,119.82 395.97,118.52 395.33,117.26C394.72,116.05 394.09,114.88 393.45,113.74C392.84,112.64 392.21,111.58 391.58,110.55C390.98,109.57 390.36,108.62 389.75,107.7C389.17,106.82 388.58,105.97 388,105.15C387.44,104.37 386.88,103.62 386.33,102.89C385.8,102.2 385.28,101.53 384.76,100.88C384.27,100.27 383.78,99.67 383.3,99.1C382.84,98.56 382.39,98.04 381.95,97.54C381.53,97.06 381.12,96.6 380.71,96.16C380.32,95.74 379.94,95.33 379.57,94.94C379.22,94.57 378.88,94.21 378.54,93.87C378.22,93.55 377.91,93.24 377.61,92.94C377.32,92.66 377.04,92.38 376.77,92.11C376.51,91.86 376.26,91.62 376.01,91.39C375.78,91.17 375.55,90.95 375.33,90.75Q375.12,90.56 374.73,90.2" style="vector-effect: non-scaling-stroke; fill: none; stroke: rgb(0, 128, 0); stroke-opacity: 1; stroke-width: 2px; opacity: 1;"/></g><g class="points"/><g class="text"/></g><g class="trace scatter tracef0913976-ec04-4919-9142-8f4b7bc94637" style="stroke-miterlimit: 2; opacity: 1;"><g class="fills"/><g class="errorbars"/><g class="lines"><path class="js-line" d="M376.09,232.17Q376.62,232 376.9,231.91C377.2,231.81 377.5,231.71 377.82,231.6C378.15,231.49 378.5,231.37 378.85,231.24C379.23,231.1 379.62,230.96 380.02,230.81C380.44,230.65 380.87,230.48 381.32,230.3C381.8,230.11 382.29,229.9 382.79,229.69C383.32,229.46 383.86,229.22 384.42,228.97C385.01,228.7 385.63,228.42 386.25,228.12C386.91,227.8 387.58,227.46 388.27,227.1C389,226.72 389.75,226.31 390.51,225.88C391.31,225.42 392.14,224.94 392.97,224.42C393.85,223.87 394.75,223.29 395.65,222.68C396.6,222.03 397.58,221.35 398.55,220.62C399.58,219.85 400.61,219.03 401.65,218.16C402.74,217.25 403.84,216.29 404.93,215.27C406.07,214.2 407.22,213.06 408.34,211.86C409.51,210.61 410.68,209.29 411.81,207.9C412.99,206.45 414.15,204.93 415.26,203.33C416.41,201.67 417.53,199.94 418.58,198.13C419.66,196.26 420.7,194.31 421.65,192.29C422.62,190.22 423.53,188.07 424.33,185.86C425.15,183.6 425.88,181.26 426.49,178.89C427.11,176.48 427.62,174 428,171.51C428.38,168.99 428.65,166.43 428.78,163.87C428.91,161.3 428.91,158.7 428.78,156.13C428.65,153.57 428.38,151.01 428,148.49C427.62,146 427.11,143.52 426.49,141.11C425.88,138.74 425.15,136.4 424.33,134.14C423.53,131.93 422.62,129.78 421.65,127.71C420.7,125.69 419.66,123.74 418.58,121.87C417.53,120.06 416.41,118.33 415.26,116.67C414.15,115.07 412.99,113.55 411.81,112.1C410.68,110.71 409.51,109.39 408.34,108.14C407.22,106.94 406.07,105.8 404.93,104.73C403.84,103.71 402.74,102.75 401.65,101.84C400.61,100.97 399.58,100.15 398.55,99.38C397.58,98.65 396.6,97.97 395.65,97.32C394.75,96.71 393.85,96.13 392.97,95.58C392.14,95.06 391.31,94.58 390.51,94.12C389.75,93.69 389,93.28 388.27,92.9C387.58,92.54 386.91,92.2 386.25,91.88C385.63,91.58 385.01,91.3 384.42,91.03C383.86,90.78 383.32,90.54 382.79,90.31C382.29,90.1 381.8,89.89 381.32,89.7C380.87,89.52 380.44,89.35 380.02,89.19C379.62,89.04 379.23,88.9 378.85,88.76C378.5,88.63 378.15,88.51 377.82,88.4C377.5,88.29 377.2,88.19 376.9,88.09Q376.62,88 376.09,87.83" style="vector-effect: non-scaling-stroke; fill: none; stroke: rgb(0, 128, 0); stroke-opacity: 1; stroke-width: 2px; opacity: 1;"/></g><g class="points"/><g class="text"/></g><g class="trace scatter trace2c377425-7488-478c-8fdb-206783609a5b" style="stroke-miterlimit: 2; opacity: 1;"><g class="fills"/><g class="errorbars"/><g class="lines"><path class="js-line" d="M376.33,235Q376.91,235.08 377.21,235.12C377.53,235.16 377.87,235.2 378.22,235.24C378.59,235.28 378.97,235.32 379.37,235.36C379.79,235.4 380.23,235.44 380.68,235.48C381.16,235.52 381.66,235.56 382.17,235.59C382.72,235.62 383.29,235.65 383.88,235.67C384.51,235.69 385.16,235.72 385.83,235.73C386.55,235.74 387.29,235.73 388.06,235.72C388.88,235.71 389.73,235.68 390.6,235.64C391.53,235.59 392.5,235.53 393.49,235.44C394.55,235.35 395.64,235.23 396.77,235.08C397.97,234.92 399.21,234.73 400.48,234.5C401.84,234.25 403.23,233.96 404.66,233.61C406.18,233.24 407.75,232.81 409.35,232.31C411.05,231.78 412.79,231.19 414.55,230.49C416.42,229.75 418.33,228.92 420.24,227.97C422.27,226.97 424.34,225.86 426.38,224.6C428.54,223.27 430.72,221.8 432.84,220.17C435.08,218.45 437.31,216.56 439.44,214.5C441.67,212.34 443.86,209.98 445.88,207.45C447.99,204.81 450.01,201.95 451.81,198.94C453.67,195.82 455.38,192.48 456.8,189.03C458.26,185.49 459.51,181.74 460.43,177.95C461.36,174.1 462.02,170.07 462.34,166.08C462.66,162.06 462.66,157.94 462.34,153.92C462.02,149.93 461.36,145.9 460.43,142.05C459.51,138.26 458.26,134.51 456.8,130.97C455.38,127.52 453.67,124.18 451.81,121.06C450.01,118.05 447.99,115.19 445.88,112.55C443.86,110.02 441.67,107.66 439.44,105.5C437.31,103.44 435.08,101.55 432.84,99.83C430.72,98.2 428.54,96.73 426.38,95.4C424.34,94.14 422.27,93.03 420.24,92.03C418.33,91.08 416.42,90.25 414.55,89.51C412.79,88.81 411.05,88.22 409.35,87.69C407.75,87.19 406.18,86.76 404.66,86.39C403.23,86.04 401.84,85.75 400.48,85.5C399.21,85.27 397.97,85.08 396.77,84.92C395.64,84.77 394.55,84.65 393.49,84.56C392.5,84.47 391.53,84.41 390.6,84.36C389.73,84.32 388.88,84.29 388.06,84.28C387.29,84.27 386.55,84.26 385.83,84.27C385.16,84.28 384.51,84.31 383.88,84.33C383.29,84.35 382.72,84.38 382.17,84.41C381.66,84.44 381.16,84.48 380.68,84.52C380.23,84.56 379.79,84.6 379.37,84.64C378.97,84.68 378.59,84.72 378.22,84.76C377.87,84.8 377.53,84.84 377.21,84.88Q376.91,84.92 376.33,85" style="vector-effect: non-scaling-stroke; fill: none; stroke: rgb(0, 128, 0); stroke-opacity: 1; stroke-width: 2px; opacity: 1;"/></g><g class="points"/><g class="text"/></g><g class="trace scatter trace9146dd84-3d1a-4fe5-8e7d-1ef7dd0a1bb9" style="stroke-miterlimit: 2; opacity: 1;"><g class="fills"/><g class="errorbars"/><g class="lines"><path class="js-line" d="M375.26,237.74Q375.76,238.08 376.03,238.26C376.31,238.45 376.6,238.65 376.91,238.85C377.24,239.07 377.58,239.28 377.93,239.51C378.31,239.75 378.69,240 379.1,240.25C379.54,240.52 379.99,240.81 380.47,241.09C380.98,241.4 381.51,241.71 382.07,242.02C382.66,242.36 383.28,242.7 383.93,243.05C384.62,243.42 385.34,243.81 386.1,244.19C386.92,244.6 387.77,245.02 388.66,245.44C389.62,245.89 390.62,246.35 391.67,246.8C392.8,247.28 393.99,247.77 395.23,248.24C396.57,248.75 397.97,249.25 399.44,249.73C401.03,250.25 402.7,250.76 404.45,251.22C406.34,251.72 408.33,252.2 410.41,252.61C412.67,253.05 415.04,253.46 417.52,253.75C420.2,254.07 423.02,254.31 425.95,254.39C429.13,254.48 432.48,254.44 435.92,254.17C439.65,253.87 443.57,253.4 447.54,252.58C451.85,251.69 456.35,250.52 460.81,248.88C465.63,247.11 470.62,244.93 475.4,242.18C480.53,239.23 485.77,235.7 490.53,231.54C495.59,227.12 500.58,221.93 504.77,216.21C509.17,210.21 513.19,203.33 516.12,196.17C519.15,188.79 521.42,180.58 522.49,172.51C523.57,164.36 523.57,155.64 522.49,147.49C521.42,139.42 519.15,131.21 516.12,123.83C513.19,116.67 509.17,109.79 504.77,103.79C500.58,98.07 495.59,92.88 490.53,88.46C485.77,84.3 480.53,80.77 475.4,77.82C470.62,75.07 465.63,72.89 460.81,71.12C456.35,69.48 451.85,68.31 447.54,67.42C443.57,66.6 439.65,66.13 435.92,65.83C432.48,65.56 429.13,65.52 425.95,65.61C423.02,65.69 420.2,65.93 417.52,66.25C415.04,66.54 412.67,66.95 410.41,67.39C408.33,67.8 406.34,68.28 404.45,68.78C402.7,69.24 401.03,69.75 399.44,70.27C397.97,70.75 396.57,71.25 395.23,71.76C393.99,72.23 392.8,72.72 391.67,73.2C390.62,73.65 389.62,74.11 388.66,74.56C387.77,74.98 386.92,75.4 386.1,75.81C385.34,76.19 384.62,76.58 383.93,76.95C383.28,77.3 382.66,77.64 382.07,77.98C381.51,78.29 380.98,78.6 380.47,78.91C379.99,79.19 379.54,79.48 379.1,79.75C378.69,80 378.31,80.25 377.93,80.49C377.58,80.72 377.24,80.93 376.91,81.15C376.6,81.35 376.31,81.55 376.03,81.74Q375.76,81.92 375.26,82.26" style="vector-effect: non-scaling-stroke; fill: none; stroke: rgb(0, 128, 0); stroke-opacity: 1; stroke-width: 2px; opacity: 1;"/></g><g class="points"/><g class="text"/></g><g class="trace scatter tracec8f9db4d-04c5-4b04-8702-14c46523019b" style="stroke-miterlimit: 2; opacity: 1;"><g class="fills"/><g class="errorbars"/><g class="lines"><path class="js-line" d="M373,239.76Q373.29,240.31 373.44,240.6C373.61,240.91 373.78,241.23 373.96,241.56C374.15,241.91 374.36,242.28 374.57,242.66C374.8,243.07 375.03,243.49 375.28,243.93C375.55,244.4 375.83,244.89 376.12,245.39C376.44,245.93 376.76,246.49 377.11,247.07C377.48,247.69 377.87,248.34 378.28,249.01C378.73,249.73 379.2,250.48 379.69,251.26C380.22,252.1 380.78,252.96 381.37,253.86C382.01,254.83 382.7,255.85 383.42,256.89C384.21,258.02 385.04,259.2 385.93,260.41C386.9,261.73 387.93,263.11 389.03,264.52C390.24,266.07 391.52,267.68 392.91,269.33C394.44,271.14 396.07,273.02 397.84,274.94C399.8,277.06 401.88,279.27 404.17,281.5C406.72,283.98 409.46,286.55 412.48,289.12C415.86,292 419.5,294.96 423.55,297.86C428.11,301.12 433.07,304.47 438.6,307.59C444.88,311.13 451.78,314.72 459.43,317.72C468.21,321.16 477.94,324.53 488.57,326.58C500.84,328.95 514.67,330.84 529.03,330.07C545.64,329.17 564.71,326.64 582.36,319.6C602.55,311.55 625.56,298.88 642.44,281.52C661.1,262.33 679.36,234.3 686.91,206.86C694.75,178.37 694.75,141.63 686.91,113.14C679.36,85.7 661.1,57.67 642.44,38.48C625.56,21.12 602.55,8.45 582.36,0.4C564.71,-6.64 545.64,-9.17 529.03,-10.07C514.67,-10.84 500.84,-8.95 488.57,-6.58C477.94,-4.53 468.21,-1.16 459.43,2.28C451.78,5.28 444.88,8.87 438.6,12.41C433.07,15.53 428.11,18.88 423.55,22.14C419.5,25.04 415.86,28 412.48,30.88C409.46,33.45 406.72,36.02 404.17,38.5C401.88,40.73 399.8,42.94 397.84,45.06C396.07,46.98 394.44,48.86 392.91,50.67C391.52,52.32 390.24,53.93 389.03,55.48C387.93,56.89 386.9,58.27 385.93,59.59C385.04,60.8 384.21,61.98 383.42,63.11C382.7,64.15 382.01,65.17 381.37,66.14C380.78,67.04 380.22,67.9 379.69,68.74C379.2,69.52 378.73,70.27 378.28,70.99C377.87,71.66 377.48,72.31 377.11,72.93C376.76,73.51 376.44,74.07 376.12,74.61C375.83,75.11 375.55,75.6 375.28,76.07C375.03,76.51 374.8,76.93 374.57,77.34C374.36,77.72 374.15,78.09 373.96,78.44C373.78,78.77 373.61,79.09 373.44,79.4Q373.29,79.69 373,80.24" style="vector-effect: non-scaling-stroke; fill: none; stroke: rgb(0, 128, 0); stroke-opacity: 1; stroke-width: 2px; opacity: 1;"/></g><g class="points"/><g class="text"/></g><g class="trace scatter trace576dee8f-6f93-4401-879a-2bc884e947d9" style="stroke-miterlimit: 2; opacity: 1;"><g class="fills"/><g class="errorbars"/><g class="lines"><path class="js-line" d="M370,240.5Q370,241.13 370,241.46C370,241.82 370,242.19 370,242.57C370,242.98 370,243.4 370,243.84C370,244.31 370,244.81 370,245.32C370,245.87 370,246.44 370,247.03C370,247.67 370,248.33 370,249.02C370,249.77 370,250.54 370,251.35C370,252.22 370,253.13 370,254.07C370,255.1 370,256.16 370,257.28C370,258.49 370,259.76 370,261.08C370,262.52 370,264.03 370,265.61C370,267.34 370,269.16 370,271.06C370,273.15 370,275.35 370,277.66C370,280.22 370,282.92 370,285.77C370,288.95 370,292.29 370,295.85C370,299.86 370,304.1 370,308.64C370,313.8 370,319.28 370,325.2C370,332.04 370,339.34 370,347.31C370,356.7 370,366.79 370,377.99C370,391.55 370,406.24 370,422.97C370,444.07 370,467.14 370,494.53C370,531.45 370,572.11 370,624.58C370,705 370,789.27 370,930.1C370,1245.65 370,2464 370,2464C370,2464 370,-2144 370,-2144C370,-2144 370,-925.65 370,-610.1C370,-469.27 370,-385 370,-304.58C370,-252.11 370,-211.45 370,-174.53C370,-147.14 370,-124.07 370,-102.97C370,-86.24 370,-71.55 370,-57.99C370,-46.79 370,-36.7 370,-27.31C370,-19.34 370,-12.04 370,-5.2C370,0.72 370,6.2 370,11.36C370,15.9 370,20.14 370,24.15C370,27.71 370,31.05 370,34.23C370,37.08 370,39.78 370,42.34C370,44.65 370,46.85 370,48.94C370,50.84 370,52.66 370,54.39C370,55.97 370,57.48 370,58.92C370,60.24 370,61.51 370,62.72C370,63.84 370,64.9 370,65.93C370,66.87 370,67.78 370,68.65C370,69.46 370,70.23 370,70.98C370,71.67 370,72.33 370,72.97C370,73.56 370,74.13 370,74.68C370,75.19 370,75.69 370,76.16C370,76.6 370,77.02 370,77.43C370,77.81 370,78.18 370,78.54Q370,78.87 370,79.5" style="vector-effect: non-scaling-stroke; fill: none; stroke: rgb(255, 0, 255); stroke-opacity: 1; stroke-width: 2px; opacity: 1;"/></g><g class="points"/><g class="text"/></g></g></g><g class="overplot"/><path class="xlines-above crisp" d="M0,0" style="fill: none;"/><path class="ylines-above crisp" d="M0,0" style="fill: none;"/><g class="overlines-above"/><g class="xaxislayer-above"><g class="xtick"><text text-anchor="middle" x="0" y="433" transform="translate(154.66,0)" style="font-family: 'Open Sans', verdana, arial, sans-serif; font-size: 12px; fill: rgb(242, 245, 250); fill-opacity: 1; white-space: pre; opacity: 1;">4</text></g><g class="xtick"><text text-anchor="middle" x="0" y="433" style="font-family: 'Open Sans', verdana, arial, sans-serif; font-size: 12px; fill: rgb(242, 245, 250); fill-opacity: 1; white-space: pre; opacity: 1;" transform="translate(302.33000000000004,0)">2</text></g><g class="xtick"><text text-anchor="middle" x="0" y="433" style="font-family: 'Open Sans', verdana, arial, sans-serif; font-size: 12px; fill: rgb(242, 245, 250); fill-opacity: 1; white-space: pre; opacity: 1;" transform="translate(450,0)">0</text></g><g class="xtick"><text text-anchor="middle" x="0" y="433" style="font-family: 'Open Sans', verdana, arial, sans-serif; font-size: 12px; fill: rgb(242, 245, 250); fill-opacity: 1; white-space: pre; opacity: 1;" transform="translate(597.67,0)">2</text></g><g class="xtick"><text text-anchor="middle" x="0" y="433" style="font-family: 'Open Sans', verdana, arial, sans-serif; font-size: 12px; fill: rgb(242, 245, 250); fill-opacity: 1; white-space: pre; opacity: 1;" transform="translate(745.34,0)">4</text></g></g><g class="yaxislayer-above"><g class="ytick"><text text-anchor="end" x="79" y="4.199999999999999" transform="translate(0,407.67)" style="font-family: 'Open Sans', verdana, arial, sans-serif; font-size: 12px; fill: rgb(242, 245, 250); fill-opacity: 1; white-space: pre; opacity: 1;">2</text></g><g class="ytick"><text text-anchor="end" x="79" y="4.199999999999999" style="font-family: 'Open Sans', verdana, arial, sans-serif; font-size: 12px; fill: rgb(242, 245, 250); fill-opacity: 1; white-space: pre; opacity: 1;" transform="translate(0,370.75)">1.5</text></g><g class="ytick"><text text-anchor="end" x="79" y="4.199999999999999" style="font-family: 'Open Sans', verdana, arial, sans-serif; font-size: 12px; fill: rgb(242, 245, 250); fill-opacity: 1; white-space: pre; opacity: 1;" transform="translate(0,333.83000000000004)">1</text></g><g class="ytick"><text text-anchor="end" x="79" y="4.199999999999999" style="font-family: 'Open Sans', verdana, arial, sans-serif; font-size: 12px; fill: rgb(242, 245, 250); fill-opacity: 1; white-space: pre; opacity: 1;" transform="translate(0,296.91999999999996)">0.5</text></g><g class="ytick"><text text-anchor="end" x="79" y="4.199999999999999" style="font-family: 'Open Sans', verdana, arial, sans-serif; font-size: 12px; fill: rgb(242, 245, 250); fill-opacity: 1; white-space: pre; opacity: 1;" transform="translate(0,260)">0</text></g><g class="ytick"><text text-anchor="end" x="79" y="4.199999999999999" style="font-family: 'Open Sans', verdana, arial, sans-serif; font-size: 12px; fill: rgb(242, 245, 250); fill-opacity: 1; white-space: pre; opacity: 1;" transform="translate(0,223.07999999999998)">0.5</text></g><g class="ytick"><text text-anchor="end" x="79" y="4.199999999999999" style="font-family: 'Open Sans', verdana, arial, sans-serif; font-size: 12px; fill: rgb(242, 245, 250); fill-opacity: 1; white-space: pre; opacity: 1;" transform="translate(0,186.17000000000002)">1</text></g><g class="ytick"><text text-anchor="end" x="79" y="4.199999999999999" style="font-family: 'Open Sans', verdana, arial, sans-serif; font-size: 12px; fill: rgb(242, 245, 250); fill-opacity: 1; white-space: pre; opacity: 1;" transform="translate(0,149.25)">1.5</text></g><g class="ytick"><text text-anchor="end" x="79" y="4.199999999999999" style="font-family: 'Open Sans', verdana, arial, sans-serif; font-size: 12px; fill: rgb(242, 245, 250); fill-opacity: 1; white-space: pre; opacity: 1;" transform="translate(0,112.33)">2</text></g></g><g class="overaxes-above"/></g></g><g class="polarlayer"/><g class="ternarylayer"/><g class="geolayer"/><g class="funnelarealayer"/><g class="pielayer"/><g class="iciclelayer"/><g class="treemaplayer"/><g class="sunburstlayer"/><g class="glimages"/><defs id="topdefs-958450"><g class="clips"/></defs><g class="layer-above"><g class="imagelayer"/><g class="shapelayer"/></g><g class="infolayer"><g class="g-gtitle"/><g class="g-xtitle"/><g class="g-ytitle"/></g></svg>